<svg width="48" height="49" viewBox="0 0 48 49" fill="none" xmlns="http://www.w3.org/2000/svg">
<path id="Vector" d="M46.3028 17.0077C49.1739 14.1366 47.8647 10.7831 46.3028 9.15231L39.4121 2.26163C36.5181 -0.60948 33.1876 0.699748 31.5568 2.26163L27.6521 6.18932H21.7031C17.339 6.18932 14.8124 8.48621 13.5262 11.1276L3.32798 21.3258V30.5134L1.69718 32.1212C-1.17393 35.0153 0.135295 38.3458 1.69718 39.9766L8.58786 46.8673C9.82818 48.1076 11.1604 48.567 12.4237 48.567C14.0545 48.567 15.5474 47.7631 16.4432 46.8673L22.6448 40.6427H30.8907C34.7954 40.6427 36.7707 38.208 37.4828 35.8192C40.0782 35.1302 41.5023 33.1548 42.0765 31.2254C45.6367 30.3067 46.9689 26.9303 46.9689 24.5645V17.6738H45.6138L46.3028 17.0077ZM42.3751 24.5645C42.3751 25.5981 41.9387 26.8613 40.0782 26.8613H37.7814V29.1582C37.7814 30.1918 37.3449 31.4551 35.4845 31.4551H33.1876V33.752C33.1876 34.7856 32.7512 36.0489 30.8907 36.0489H20.7614L13.2276 43.5827C12.5155 44.2488 12.1021 43.8584 11.8494 43.6057L4.98174 36.761C4.31564 36.0489 4.70611 35.6355 4.95877 35.3828L7.92176 32.3969V23.2093L12.5155 18.6155V22.2676C12.5155 25.0468 14.3531 29.1582 19.4062 29.1582C24.4594 29.1582 26.2969 25.0468 26.2969 22.2676H42.3751V24.5645ZM43.0412 13.7461L39.1365 17.6738H21.7031V22.2676C21.7031 23.3012 21.2667 24.5645 19.4062 24.5645C17.5457 24.5645 17.1093 23.3012 17.1093 22.2676V15.3769C17.1093 14.3203 17.4998 10.7831 21.7031 10.7831H29.5355L34.7724 5.54619C35.4845 4.88009 35.8979 5.27056 36.1506 5.52322L43.0183 12.368C43.6844 13.08 43.2939 13.4934 43.0412 13.7461Z" fill="#4FC372"/>
</svg>
