<?xml version="1.0" encoding="UTF-8"?>
<svg xmlns="http://www.w3.org/2000/svg" xmlns:xlink="http://www.w3.org/1999/xlink" width="24px" height="24px" viewBox="0 0 24 24" version="1.1">
<g id="surface1">
<path style=" stroke:none;fill-rule:nonzero;fill:rgb(30.980393%,76.47059%,44.705883%);fill-opacity:1;" d="M 9.496094 23.550781 L 9.496094 20.792969 C 7.230469 20.535156 5.273438 20.042969 3.625 19.316406 C 1.980469 18.589844 0.773438 17.5625 0 16.234375 L 4.75 15.273438 C 5.390625 16.300781 6.34375 17.082031 7.605469 17.613281 C 8.867188 18.148438 10.527344 18.417969 12.578125 18.417969 C 14.332031 18.417969 15.820312 18.21875 17.039062 17.824219 C 18.257812 17.429688 18.867188 16.8125 18.867188 15.980469 C 18.867188 15.230469 18.394531 14.636719 17.453125 14.199219 C 16.511719 13.761719 14.332031 13.261719 10.910156 12.707031 C 7.230469 12.128906 4.707031 11.4375 3.335938 10.636719 C 1.96875 9.835938 1.285156 8.855469 1.285156 7.699219 C 1.285156 6.308594 2.183594 5.230469 3.980469 4.460938 C 5.777344 3.691406 7.613281 3.25 9.496094 3.144531 L 9.496094 0.449219 L 14.632812 0.449219 L 14.632812 3.144531 C 16.769531 3.316406 18.535156 3.707031 19.925781 4.316406 C 21.316406 4.925781 22.332031 5.667969 22.972656 6.546875 L 18.222656 7.570312 C 17.710938 6.886719 16.984375 6.375 16.042969 6.03125 C 15.101562 5.691406 13.816406 5.519531 12.191406 5.519531 C 10.308594 5.519531 8.878906 5.726562 7.894531 6.144531 C 6.910156 6.5625 6.417969 7.082031 6.417969 7.699219 C 6.417969 8.40625 7.058594 8.960938 8.34375 9.367188 C 9.625 9.777344 11.851562 10.203125 15.015625 10.652344 C 17.96875 11.082031 20.203125 11.757812 21.722656 12.691406 C 23.242188 13.621094 24 14.695312 24 15.914062 C 24 17.433594 23.101562 18.589844 21.304688 19.378906 C 19.507812 20.171875 17.285156 20.664062 14.632812 20.855469 L 14.632812 23.550781 Z M 9.496094 23.550781 "/>
</g>
</svg>
