<svg width="14" height="16" viewBox="0 0 14 16" fill="none" xmlns="http://www.w3.org/2000/svg">
<g id="Group">
<path id="Vector" d="M3.39844 14.0269H11.3984M5.79844 14.0269C10.1984 12.0269 6.43844 8.90686 8.19844 6.02686" stroke="#00A833" stroke-width="2" stroke-linecap="round" stroke-linejoin="round"/>
<path id="Vector_2" d="M5.4 5.54705C6.28 6.18705 6.84 7.30705 7.24 8.50705C5.64 8.82705 4.44 8.82705 3.4 8.26705C2.44 7.78705 1.56 6.74705 1 4.90705C3.24 4.50705 4.52 4.90705 5.4 5.54705ZM9.08 2.82705C8.47007 3.7803 8.16326 4.89597 8.2 6.02705C9.72 5.94705 10.84 5.54705 11.64 4.90705C12.44 4.10705 12.92 3.06705 13 1.22705C10.84 1.30705 9.8 2.02705 9.08 2.82705Z" stroke="#00A833" stroke-width="2" stroke-linecap="round" stroke-linejoin="round"/>
</g>
</svg>
