<svg width="48" height="49" viewBox="0 0 48 49" fill="none" xmlns="http://www.w3.org/2000/svg">
<path id="Vector" d="M18 1.62695C18 1.22913 17.842 0.847598 17.5607 0.566293C17.2794 0.284989 16.8978 0.126953 16.5 0.126953C16.1022 0.126953 15.7206 0.284989 15.4393 0.566293C15.158 0.847598 15 1.22913 15 1.62695V6.12695H13.5C11.5109 6.12695 9.60322 6.91713 8.1967 8.32365C6.79018 9.73018 6 11.6378 6 13.627V15.127H1.5C1.10218 15.127 0.720645 15.285 0.43934 15.5663C0.158036 15.8476 0 16.2291 0 16.627C0 17.0248 0.158036 17.4063 0.43934 17.6876C0.720645 17.9689 1.10218 18.127 1.5 18.127H6V22.627H1.5C1.10218 22.627 0.720645 22.785 0.43934 23.0663C0.158036 23.3476 0 23.7291 0 24.127C0 24.5248 0.158036 24.9063 0.43934 25.1876C0.720645 25.4689 1.10218 25.627 1.5 25.627H6V30.127H1.5C1.10218 30.127 0.720645 30.285 0.43934 30.5663C0.158036 30.8476 0 31.2291 0 31.627C0 32.0248 0.158036 32.4063 0.43934 32.6876C0.720645 32.9689 1.10218 33.127 1.5 33.127H6V34.627C6 36.6161 6.79018 38.5237 8.1967 39.9303C9.60322 41.3368 11.5109 42.127 13.5 42.127H15V46.627C15 47.0248 15.158 47.4063 15.4393 47.6876C15.7206 47.9689 16.1022 48.127 16.5 48.127C16.8978 48.127 17.2794 47.9689 17.5607 47.6876C17.842 47.4063 18 47.0248 18 46.627V42.127H22.5V46.627C22.5 47.0248 22.658 47.4063 22.9393 47.6876C23.2206 47.9689 23.6022 48.127 24 48.127C24.3978 48.127 24.7794 47.9689 25.0607 47.6876C25.342 47.4063 25.5 47.0248 25.5 46.627V42.127H30V46.627C30 47.0248 30.158 47.4063 30.4393 47.6876C30.7206 47.9689 31.1022 48.127 31.5 48.127C31.8978 48.127 32.2794 47.9689 32.5607 47.6876C32.842 47.4063 33 47.0248 33 46.627V42.127H34.5C36.4891 42.127 38.3968 41.3368 39.8033 39.9303C41.2098 38.5237 42 36.6161 42 34.627V33.127H46.5C46.8978 33.127 47.2794 32.9689 47.5607 32.6876C47.842 32.4063 48 32.0248 48 31.627C48 31.2291 47.842 30.8476 47.5607 30.5663C47.2794 30.285 46.8978 30.127 46.5 30.127H42V25.627H46.5C46.8978 25.627 47.2794 25.4689 47.5607 25.1876C47.842 24.9063 48 24.5248 48 24.127C48 23.7291 47.842 23.3476 47.5607 23.0663C47.2794 22.785 46.8978 22.627 46.5 22.627H42V18.127H46.5C46.8978 18.127 47.2794 17.9689 47.5607 17.6876C47.842 17.4063 48 17.0248 48 16.627C48 16.2291 47.842 15.8476 47.5607 15.5663C47.2794 15.285 46.8978 15.127 46.5 15.127H42V13.627C42 11.6378 41.2098 9.73018 39.8033 8.32365C38.3968 6.91713 36.4891 6.12695 34.5 6.12695H33V1.62695C33 1.22913 32.842 0.847598 32.5607 0.566293C32.2794 0.284989 31.8978 0.126953 31.5 0.126953C31.1022 0.126953 30.7206 0.284989 30.4393 0.566293C30.158 0.847598 30 1.22913 30 1.62695V6.12695H25.5V1.62695C25.5 1.22913 25.342 0.847598 25.0607 0.566293C24.7794 0.284989 24.3978 0.126953 24 0.126953C23.6022 0.126953 23.2206 0.284989 22.9393 0.566293C22.658 0.847598 22.5 1.22913 22.5 1.62695V6.12695H18V1.62695ZM26.958 16.747L25.71 21.127H30.297C30.525 21.1272 30.7482 21.1923 30.9405 21.3147C31.1328 21.4372 31.2862 21.6118 31.3828 21.8183C31.4794 22.0248 31.5153 22.2545 31.4861 22.4806C31.4569 22.7067 31.3639 22.9198 31.218 23.095L23.244 32.665C22.365 33.715 20.676 32.815 21.066 31.501L22.365 27.127H17.7C17.4715 27.1272 17.2476 27.0623 17.0548 26.9397C16.862 26.8171 16.7081 26.642 16.6114 26.435C16.5146 26.2279 16.479 25.9976 16.5087 25.771C16.5384 25.5444 16.6322 25.3311 16.779 25.156L24.783 15.592C25.653 14.548 27.333 15.439 26.961 16.747" fill="white"/>
</svg>
