<svg width="48" height="48" viewBox="0 0 48 48" fill="none" xmlns="http://www.w3.org/2000/svg">
<path id="Vector" d="M3.43596 21.556C3.43596 21.1015 3.61654 20.6655 3.93797 20.3441C4.2594 20.0227 4.69535 19.8421 5.14992 19.8421H8.57784C9.03242 19.8421 9.46837 20.0227 9.7898 20.3441C10.1112 20.6655 10.2918 21.1015 10.2918 21.556C10.2918 22.0106 10.1112 22.4466 9.7898 22.768C9.46837 23.0894 9.03242 23.27 8.57784 23.27H5.14992C4.69535 23.27 4.2594 23.0894 3.93797 22.768C3.61654 22.4466 3.43596 22.0106 3.43596 21.556ZM11.8836 11.8615C12.2053 12.1831 12.6414 12.3637 13.0963 12.3637C13.5511 12.3637 13.9873 12.1831 14.3089 11.8615C14.6305 11.5398 14.8112 11.1037 14.8112 10.6488C14.8112 10.194 14.6305 9.75781 14.3089 9.4362L11.8836 7.01309C11.5596 6.70523 11.1281 6.53614 10.6812 6.54186C10.2342 6.54758 9.80722 6.72767 9.49117 7.04373C9.17511 7.35978 8.99502 7.7868 8.9893 8.23374C8.98358 8.68067 9.15267 9.11216 9.46053 9.4362L11.8836 11.8615ZM24.0035 7.84436C24.4581 7.84436 24.894 7.66379 25.2154 7.34236C25.5369 7.02093 25.7174 6.58498 25.7174 6.1304V2.70249C25.7174 2.24791 25.5369 1.81196 25.2154 1.49053C24.894 1.1691 24.4581 0.988525 24.0035 0.988525C23.5489 0.988525 23.113 1.1691 22.7915 1.49053C22.4701 1.81196 22.2895 2.24791 22.2895 2.70249V6.1304C22.2895 6.58498 22.4701 7.02093 22.7915 7.34236C23.113 7.66379 23.5489 7.84436 24.0035 7.84436ZM34.9107 12.3628C35.1358 12.363 35.3588 12.3188 35.5669 12.2328C35.775 12.1467 35.964 12.0206 36.1233 11.8615L38.5464 9.4362C38.8543 9.11216 39.0234 8.68067 39.0177 8.23374C39.0119 7.7868 38.8319 7.35978 38.5158 7.04373C38.1997 6.72767 37.7727 6.54758 37.3258 6.54186C36.8789 6.53614 36.4474 6.70523 36.1233 7.01309L33.6981 9.4362C33.4581 9.67591 33.2946 9.98143 33.2284 10.3141C33.1622 10.6467 33.1961 10.9916 33.3259 11.3049C33.4558 11.6183 33.6757 11.8861 33.9578 12.0744C34.2399 12.2627 34.5715 12.3631 34.9107 12.3628ZM37.7152 21.556C37.7152 22.0106 37.8957 22.4466 38.2172 22.768C38.5386 23.0894 38.9746 23.27 39.4291 23.27H42.857C43.3116 23.27 43.7476 23.0894 44.069 22.768C44.3904 22.4466 44.571 22.0106 44.571 21.556C44.571 21.1015 44.3904 20.6655 44.069 20.3441C43.7476 20.0227 43.3116 19.8421 42.857 19.8421H39.4291C38.9746 19.8421 38.5386 20.0227 38.2172 20.3441C37.8957 20.6655 37.7152 21.1015 37.7152 21.556ZM15.4337 23.27C15.8883 23.27 16.3242 23.0894 16.6456 22.768C16.9671 22.4466 17.1476 22.0106 17.1476 21.556C17.1476 19.7378 17.87 17.994 19.1557 16.7082C20.4414 15.4225 22.1852 14.7002 24.0035 14.7002C25.8218 14.7002 27.5656 15.4225 28.8513 16.7082C30.137 17.994 30.8593 19.7378 30.8593 21.556C30.8593 22.0106 31.0399 22.4466 31.3613 22.768C31.6828 23.0894 32.1187 23.27 32.5733 23.27C33.0279 23.27 33.4638 23.0894 33.7852 22.768C34.1067 22.4466 34.2872 22.0106 34.2872 21.556C34.2872 18.8286 33.2038 16.2129 31.2752 14.2843C29.3466 12.3557 26.7309 11.2723 24.0035 11.2723C21.2761 11.2723 18.6603 12.3557 16.7318 14.2843C14.8032 16.2129 13.7197 18.8286 13.7197 21.556C13.7197 22.0106 13.9003 22.4466 14.2217 22.768C14.5432 23.0894 14.9791 23.27 15.4337 23.27ZM47.7654 46.4085C47.6153 46.6684 47.3995 46.8844 47.1397 47.0348C46.8799 47.1852 46.5852 47.2648 46.285 47.2654H1.722C1.42172 47.2668 1.12633 47.1893 0.86542 47.0407C0.604512 46.892 0.387242 46.6774 0.235367 46.4183C0.0834928 46.1593 0.0023452 45.8649 5.00748e-05 45.5646C-0.00224505 45.2643 0.0743931 44.9687 0.22229 44.7074L8.93992 29.2817C9.09 29.0165 9.30808 28.7961 9.57169 28.6432C9.83529 28.4903 10.1349 28.4105 10.4396 28.4119H37.5652C37.8699 28.4105 38.1695 28.4903 38.4331 28.6432C38.6968 28.7961 38.9148 29.0165 39.0649 29.2817L47.7825 44.7074C47.928 44.9679 48.0029 45.2618 47.9999 45.5602C47.9969 45.8585 47.9161 46.1509 47.7654 46.4085ZM36.5668 31.8398H31.3457L32.0912 35.2677H38.5036L36.5668 31.8398ZM28.584 35.2677L27.8385 31.8398H20.1685L19.4229 35.2677H28.584ZM18.6774 38.6956L17.5611 43.8375H30.4458L29.3296 38.6956H18.6774ZM9.50338 35.2677H15.9157L16.6613 31.8398H11.4402L9.50338 35.2677ZM4.6593 43.8375H14.0518L15.1702 38.6956H7.56661L4.6593 43.8375ZM43.3477 43.8375L40.4404 38.6956H32.8368L33.9552 43.8375H43.3477Z" fill="white"/>
</svg>
