<svg width="48" height="49" viewBox="0 0 48 49" fill="none" xmlns="http://www.w3.org/2000/svg">
<path id="Vector" d="M46.3028 17.1249C49.1739 14.2538 47.8647 10.9003 46.3028 9.2695L39.4121 2.37882C36.5181 -0.492293 33.1876 0.816936 31.5568 2.37882L27.6521 6.30651H21.7031C17.339 6.30651 14.8124 8.6034 13.5262 11.2448L3.32798 21.443V30.6306L1.69718 32.2384C-1.17393 35.1325 0.135295 38.463 1.69718 40.0938L8.58786 46.9845C9.82818 48.2248 11.1604 48.6842 12.4237 48.6842C14.0545 48.6842 15.5474 47.8802 16.4432 46.9845L22.6448 40.7599H30.8907C34.7954 40.7599 36.7707 38.3252 37.4828 35.9364C40.0782 35.2473 41.5023 33.272 42.0765 31.3426C45.6367 30.4239 46.9689 27.0474 46.9689 24.6816V17.791H45.6138L46.3028 17.1249ZM42.3751 24.6816C42.3751 25.7152 41.9387 26.9785 40.0782 26.9785H37.7814V29.2754C37.7814 30.309 37.3449 31.5723 35.4845 31.5723H33.1876V33.8692C33.1876 34.9028 32.7512 36.1661 30.8907 36.1661H20.7614L13.2276 43.6999C12.5155 44.366 12.1021 43.9755 11.8494 43.7229L4.98174 36.8781C4.31564 36.1661 4.70611 35.7527 4.95877 35.5L7.92176 32.514V23.3265L12.5155 18.7327V22.3848C12.5155 25.164 14.3531 29.2754 19.4062 29.2754C24.4594 29.2754 26.2969 25.164 26.2969 22.3848H42.3751V24.6816ZM43.0412 13.8633L39.1365 17.791H21.7031V22.3848C21.7031 23.4184 21.2667 24.6816 19.4062 24.6816C17.5457 24.6816 17.1093 23.4184 17.1093 22.3848V15.4941C17.1093 14.4375 17.4998 10.9003 21.7031 10.9003H29.5355L34.7724 5.66338C35.4845 4.99728 35.8979 5.38775 36.1506 5.64041L43.0183 12.4851C43.6844 13.1972 43.2939 13.6106 43.0412 13.8633Z" fill="#4FC372"/>
</svg>
