<svg width="48" height="47" viewBox="0 0 48 47" fill="none" xmlns="http://www.w3.org/2000/svg">
<path id="Vector" d="M3.43596 21.112C3.43596 20.6574 3.61654 20.2214 3.93797 19.9C4.2594 19.5786 4.69535 19.398 5.14992 19.398H8.57784C9.03242 19.398 9.46837 19.5786 9.7898 19.9C10.1112 20.2214 10.2918 20.6574 10.2918 21.112C10.2918 21.5665 10.1112 22.0025 9.7898 22.3239C9.46837 22.6453 9.03242 22.8259 8.57784 22.8259H5.14992C4.69535 22.8259 4.2594 22.6453 3.93797 22.3239C3.61654 22.0025 3.43596 21.5665 3.43596 21.112ZM11.8836 11.4174C12.2053 11.739 12.6414 11.9197 13.0963 11.9197C13.5511 11.9197 13.9873 11.739 14.3089 11.4174C14.6305 11.0958 14.8112 10.6596 14.8112 10.2047C14.8112 9.74992 14.6305 9.31372 14.3089 8.99211L11.8836 6.569C11.5596 6.26114 11.1281 6.09204 10.6812 6.09777C10.2342 6.10349 9.80722 6.28358 9.49117 6.59963C9.17511 6.91569 8.99502 7.34271 8.9893 7.78964C8.98358 8.23658 9.15267 8.66807 9.46053 8.99211L11.8836 11.4174ZM24.0035 7.40027C24.4581 7.40027 24.894 7.2197 25.2154 6.89827C25.5369 6.57684 25.7174 6.14088 25.7174 5.68631V2.25839C25.7174 1.80382 25.5369 1.36787 25.2154 1.04644C24.894 0.725011 24.4581 0.544434 24.0035 0.544434C23.5489 0.544434 23.113 0.725011 22.7915 1.04644C22.4701 1.36787 22.2895 1.80382 22.2895 2.25839V5.68631C22.2895 6.14088 22.4701 6.57684 22.7915 6.89827C23.113 7.2197 23.5489 7.40027 24.0035 7.40027ZM34.9107 11.9187C35.1358 11.9189 35.3588 11.8747 35.5669 11.7887C35.775 11.7027 35.964 11.5765 36.1233 11.4174L38.5464 8.99211C38.8543 8.66807 39.0234 8.23658 39.0177 7.78964C39.0119 7.34271 38.8319 6.91569 38.5158 6.59963C38.1997 6.28358 37.7727 6.10349 37.3258 6.09777C36.8789 6.09204 36.4474 6.26114 36.1233 6.569L33.6981 8.99211C33.4581 9.23182 33.2946 9.53734 33.2284 9.86999C33.1622 10.2026 33.1961 10.5475 33.3259 10.8608C33.4558 11.1742 33.6757 11.442 33.9578 11.6303C34.2399 11.8186 34.5715 11.919 34.9107 11.9187ZM37.7152 21.112C37.7152 21.5665 37.8957 22.0025 38.2172 22.3239C38.5386 22.6453 38.9746 22.8259 39.4291 22.8259H42.857C43.3116 22.8259 43.7476 22.6453 44.069 22.3239C44.3904 22.0025 44.571 21.5665 44.571 21.112C44.571 20.6574 44.3904 20.2214 44.069 19.9C43.7476 19.5786 43.3116 19.398 42.857 19.398H39.4291C38.9746 19.398 38.5386 19.5786 38.2172 19.9C37.8957 20.2214 37.7152 20.6574 37.7152 21.112ZM15.4337 22.8259C15.8883 22.8259 16.3242 22.6453 16.6456 22.3239C16.9671 22.0025 17.1476 21.5665 17.1476 21.112C17.1476 19.2937 17.87 17.5499 19.1557 16.2641C20.4414 14.9784 22.1852 14.2561 24.0035 14.2561C25.8218 14.2561 27.5656 14.9784 28.8513 16.2641C30.137 17.5499 30.8593 19.2937 30.8593 21.112C30.8593 21.5665 31.0399 22.0025 31.3613 22.3239C31.6828 22.6453 32.1187 22.8259 32.5733 22.8259C33.0279 22.8259 33.4638 22.6453 33.7852 22.3239C34.1067 22.0025 34.2872 21.5665 34.2872 21.112C34.2872 18.3845 33.2038 15.7688 31.2752 13.8402C29.3466 11.9117 26.7309 10.8282 24.0035 10.8282C21.2761 10.8282 18.6603 11.9117 16.7318 13.8402C14.8032 15.7688 13.7197 18.3845 13.7197 21.112C13.7197 21.5665 13.9003 22.0025 14.2217 22.3239C14.5432 22.6453 14.9791 22.8259 15.4337 22.8259ZM47.7654 45.9644C47.6153 46.2243 47.3995 46.4403 47.1397 46.5907C46.8799 46.7411 46.5852 46.8207 46.285 46.8214H1.722C1.42172 46.8228 1.12633 46.7452 0.86542 46.5966C0.604512 46.4479 0.387242 46.2333 0.235367 45.9743C0.0834928 45.7152 0.0023452 45.4208 5.00748e-05 45.1205C-0.00224505 44.8202 0.0743931 44.5246 0.22229 44.2633L8.93992 28.8376C9.09 28.5724 9.30808 28.352 9.57169 28.1991C9.83529 28.0462 10.1349 27.9664 10.4396 27.9678H37.5652C37.8699 27.9664 38.1695 28.0462 38.4331 28.1991C38.6968 28.352 38.9148 28.5724 39.0649 28.8376L47.7825 44.2633C47.928 44.5238 48.0029 44.8177 47.9999 45.1161C47.9969 45.4144 47.9161 45.7068 47.7654 45.9644ZM36.5668 31.3957H31.3457L32.0912 34.8236H38.5036L36.5668 31.3957ZM28.584 34.8236L27.8385 31.3957H20.1685L19.4229 34.8236H28.584ZM18.6774 38.2515L17.5611 43.3934H30.4458L29.3296 38.2515H18.6774ZM9.50338 34.8236H15.9157L16.6613 31.3957H11.4402L9.50338 34.8236ZM4.6593 43.3934H14.0518L15.1702 38.2515H7.56661L4.6593 43.3934ZM43.3477 43.3934L40.4404 38.2515H32.8368L33.9552 43.3934H43.3477Z" fill="#4FC372"/>
</svg>
