<svg width="33" height="33" viewBox="0 0 33 33" fill="none" xmlns="http://www.w3.org/2000/svg">
<g clip-path="url(#clip0_11202_1459)">
<rect x="0.5" y="0.800049" width="32" height="32" rx="4" fill="#0866FF"/>
<path d="M28.5 16.8C28.5 10.173 23.127 4.80005 16.5 4.80005C9.873 4.80005 4.5 10.173 4.5 16.8C4.5 22.428 8.375 27.15 13.601 28.447V20.467H11.127V16.8H13.6V15.22C13.6 11.135 15.449 9.24205 19.459 9.24205C20.219 9.24205 21.531 9.39205 22.067 9.54005V12.865C21.784 12.835 21.292 12.82 20.681 12.82C18.714 12.82 17.953 13.565 17.953 15.503V16.8H21.873L21.2 20.467H17.953V28.712C23.895 27.995 28.5 22.935 28.5 16.8Z" fill="white"/>
</g>
<defs>
<clipPath id="clip0_11202_1459">
<rect x="0.5" y="0.800049" width="32" height="32" rx="4" fill="white"/>
</clipPath>
</defs>
</svg>
