<svg width="60" height="60" viewBox="0 0 60 60" fill="none" xmlns="http://www.w3.org/2000/svg">
<path d="M51.1298 0.870117H8.38977C4.17583 0.870117 0.759766 4.28618 0.759766 8.50012V51.2401C0.759766 55.4541 4.17583 58.8701 8.38977 58.8701H51.1298C55.3437 58.8701 58.7598 55.4541 58.7598 51.2401V8.50012C58.7598 4.28618 55.3437 0.870117 51.1298 0.870117Z" fill="#1986C1"/>
<path d="M43.5509 35.5501C43.3909 35.3501 43.2509 35.1501 43.2009 34.9901C43.1409 34.8201 43.1509 34.5601 43.1509 34.3001C43.1509 33.8401 43.1709 33.3301 42.8609 32.9001C42.5509 32.4801 42.0509 32.3201 41.6209 32.1901C41.3709 32.1101 41.1309 32.0401 40.9809 31.9401C40.8409 31.8401 40.7009 31.6401 40.5509 31.4201C40.2909 31.0401 39.9909 30.6101 39.4809 30.4501C38.9909 30.2901 38.5109 30.4501 38.0809 30.6101C37.5709 30.7901 37.2109 30.7901 36.7009 30.6101C36.2709 30.4601 35.7909 30.3001 35.3009 30.4501C34.7909 30.6201 34.5009 31.0401 34.2309 31.4201C34.0809 31.6301 33.9409 31.8401 33.8009 31.9401C33.6609 32.0501 33.4209 32.1201 33.1609 32.1901C32.7209 32.3201 32.2309 32.4701 31.9209 32.9001C31.6109 33.3201 31.6209 33.8401 31.6309 34.2901C31.6309 34.5601 31.6309 34.8101 31.5809 34.9801C31.5309 35.1401 31.3809 35.3301 31.2309 35.5401C30.9509 35.9101 30.6309 36.3301 30.6309 36.8701C30.6309 37.4101 30.9509 37.8301 31.2309 38.2001C31.3909 38.4001 31.5309 38.6001 31.5809 38.7601C31.6409 38.9401 31.6309 39.1901 31.6309 39.4501C31.6309 39.9101 31.6109 40.4201 31.9209 40.8501C32.2309 41.2701 32.7309 41.4201 33.1609 41.5601C33.4109 41.6401 33.6509 41.7101 33.8009 41.8101C33.8309 41.8301 33.8509 41.8701 33.8809 41.8901L32.6609 45.8001C32.6009 45.9801 32.6609 46.1701 32.7909 46.3001C32.9209 46.4301 33.1109 46.4801 33.2909 46.4201L34.9009 45.9001L35.9309 47.2401C36.0309 47.3601 36.1709 47.4401 36.3309 47.4401C36.3609 47.4401 36.3909 47.4401 36.4209 47.4401C36.6009 47.4101 36.7509 47.2701 36.8109 47.1001L38.0409 43.1501C38.0409 43.1501 38.0609 43.1501 38.0709 43.1501C38.3709 43.2601 38.7109 43.3701 39.0509 43.3701C39.1909 43.3701 39.3309 43.3501 39.4709 43.3101C39.9809 43.1501 40.2709 42.7201 40.5409 42.3401C40.6909 42.1301 40.8309 41.9201 40.9709 41.8201C41.1209 41.7101 41.3509 41.6401 41.6109 41.5701C42.0509 41.4401 42.5509 41.2901 42.8509 40.8601C43.1609 40.4401 43.1509 39.9201 43.1409 39.4601C43.1409 39.1901 43.1409 38.9401 43.1909 38.7701C43.2409 38.6101 43.3909 38.4201 43.5409 38.2101C43.8209 37.8401 44.1409 37.4201 44.1409 36.8801C44.1409 36.3401 43.8209 35.9201 43.5409 35.5501H43.5509ZM36.1509 45.8701L35.4909 45.0201C35.3609 44.8501 35.1409 44.7801 34.9409 44.8501L33.9109 45.1801L34.6309 42.8501C34.8109 43.0501 35.0209 43.2201 35.3009 43.3001C35.7809 43.4601 36.2709 43.3001 36.7009 43.1401C36.8109 43.1001 36.9209 43.0701 37.0209 43.0501L36.1409 45.8701H36.1509ZM42.7509 37.6001C42.5509 37.8601 42.3409 38.1301 42.2409 38.4501C42.1309 38.7801 42.1409 39.1301 42.1409 39.4701C42.1409 39.7801 42.1509 40.1101 42.0409 40.2601C41.9309 40.4101 41.6209 40.5101 41.3209 40.6001C41.0009 40.7001 40.6709 40.8001 40.3809 41.0001C40.1009 41.2001 39.9109 41.4801 39.7209 41.7601C39.5409 42.0201 39.3509 42.2901 39.1709 42.3501C39.0009 42.4101 38.7009 42.3001 38.4109 42.2001C38.2409 42.1401 38.0709 42.0901 37.8809 42.0401C37.8809 42.0401 37.8809 42.0401 37.8709 42.0401C37.8309 42.0301 37.7809 42.0301 37.7409 42.0301C37.6309 42.0101 37.5109 41.9801 37.3909 41.9801C37.0309 41.9801 36.6809 42.1001 36.3809 42.2101C36.0909 42.3101 35.7809 42.4101 35.6209 42.3601C35.4409 42.3001 35.2509 42.0301 35.0709 41.7701C34.8809 41.5001 34.6909 41.2101 34.4109 41.0101C34.1309 40.8001 33.8009 40.7001 33.4709 40.6101C33.1709 40.5201 32.8609 40.4201 32.7409 40.2701C32.6309 40.1201 32.6409 39.8001 32.6409 39.4801C32.6409 39.1401 32.6509 38.7901 32.5409 38.4601C32.4409 38.1401 32.2309 37.8701 32.0309 37.6101C31.8309 37.3601 31.6309 37.0901 31.6309 36.8901C31.6309 36.6901 31.8309 36.4201 32.0309 36.1701C32.2309 35.9101 32.4409 35.6401 32.5409 35.3201C32.6509 34.9901 32.6409 34.6401 32.6409 34.3001C32.6409 33.9901 32.6309 33.6601 32.7409 33.5101C32.8509 33.3601 33.1609 33.2601 33.4709 33.1701C33.7909 33.0701 34.1209 32.9701 34.4009 32.7701C34.6809 32.5701 34.8709 32.2801 35.0609 32.0101C35.2409 31.7501 35.4309 31.4801 35.6109 31.4201C35.7809 31.3701 36.0809 31.4701 36.3709 31.5701C36.6809 31.6801 37.0309 31.8001 37.3909 31.8001C37.7509 31.8001 38.1009 31.6801 38.4009 31.5701C38.6909 31.4701 38.9909 31.3601 39.1609 31.4201C39.3409 31.4801 39.5309 31.7501 39.7109 32.0101C39.9009 32.2801 40.0909 32.5601 40.3709 32.7701C40.6509 32.9801 40.9809 33.0801 41.3109 33.1701C41.6109 33.2601 41.9209 33.3601 42.0309 33.5101C42.1409 33.6601 42.1309 33.9801 42.1309 34.3001C42.1309 34.6401 42.1209 34.9801 42.2309 35.3201C42.3309 35.6401 42.5409 35.9101 42.7409 36.1701C42.9309 36.4201 43.1409 36.6901 43.1409 36.8901C43.1409 37.0901 42.9409 37.3601 42.7409 37.6101L42.7509 37.6001Z" fill="white"/>
<path d="M37.3902 32.97C35.2402 32.97 33.4902 34.72 33.4902 36.87C33.4902 39.02 35.2402 40.77 37.3902 40.77C39.5402 40.77 41.2902 39.02 41.2902 36.87C41.2902 34.72 39.5402 32.97 37.3902 32.97ZM37.3902 39.78C35.7902 39.78 34.4902 38.48 34.4902 36.88C34.4902 35.28 35.7902 33.98 37.3902 33.98C38.9902 33.98 40.2902 35.28 40.2902 36.88C40.2902 38.48 38.9902 39.78 37.3902 39.78Z" fill="white"/>
<path d="M41.2694 43.1001C41.1894 42.8401 40.9094 42.6901 40.6394 42.7701C40.3794 42.8501 40.2294 43.1301 40.3094 43.4001L40.8594 45.1801L39.8294 44.8501C39.6294 44.7801 39.4094 44.8501 39.2794 45.0201L38.6194 45.8701L38.5694 45.7101C38.4894 45.4501 38.2094 45.3001 37.9394 45.3801C37.6794 45.4601 37.5294 45.7401 37.6094 46.0101L37.9494 47.0901C38.0094 47.2701 38.1594 47.4001 38.3394 47.4301C38.3694 47.4301 38.3994 47.4301 38.4294 47.4301C38.5794 47.4301 38.7294 47.3601 38.8294 47.2301L39.8594 45.8901L41.4694 46.4101C41.6494 46.4701 41.8394 46.4101 41.9694 46.2901C42.0994 46.1601 42.1494 45.9601 42.0994 45.7901L41.2594 43.0901L41.2694 43.1001Z" fill="white"/>
<path d="M30.5794 41.25H16.8094C16.5694 41.25 16.3694 41.05 16.3694 40.81V13.73C16.3694 13.49 16.5694 13.29 16.8094 13.29H33.4194C33.5594 13.29 33.6994 13.35 33.7994 13.45L38.7694 18.42H35.1994C34.7294 18.42 34.3394 18.04 34.3394 17.56V15.65C34.3394 15.37 34.1194 15.15 33.8394 15.15C33.5594 15.15 33.3394 15.37 33.3394 15.65V17.56C33.3394 18.58 34.1694 19.42 35.1994 19.42H39.4694V28.65C39.4694 28.93 39.6894 29.15 39.9694 29.15C40.2494 29.15 40.4694 28.93 40.4694 28.65V19.35C40.4694 19.14 40.4194 18.93 40.3394 18.74C40.3394 18.73 40.3294 18.71 40.3194 18.7C40.2394 18.54 40.1494 18.39 40.0194 18.26L34.4994 12.74C34.2094 12.45 33.8194 12.29 33.4094 12.29H16.7994C16.0094 12.29 15.3594 12.93 15.3594 13.73V40.82C15.3594 41.61 15.9994 42.26 16.7994 42.26H30.5694C30.8494 42.26 31.0694 42.04 31.0694 41.76C31.0694 41.48 30.8494 41.26 30.5694 41.26L30.5794 41.25Z" fill="white"/>
<path d="M36.3594 21.23V28.66C36.3594 28.94 36.5794 29.16 36.8594 29.16C37.1394 29.16 37.3594 28.94 37.3594 28.66V21.23C37.3594 20.95 37.1394 20.73 36.8594 20.73C36.5794 20.73 36.3594 20.95 36.3594 21.23Z" fill="white"/>
<path d="M30.9208 16.8101C31.2008 16.8101 31.4208 16.5901 31.4208 16.3101C31.4208 16.0301 31.2008 15.8101 30.9208 15.8101H19.3008C19.0208 15.8101 18.8008 16.0301 18.8008 16.3101V38.3301C18.8008 38.6101 19.0208 38.8301 19.3008 38.8301H29.3608C29.6408 38.8301 29.8608 38.6101 29.8608 38.3301C29.8608 38.0501 29.6408 37.8301 29.3608 37.8301H19.8008V16.8101H30.9208Z" fill="white"/>
</svg>
