<svg width="60" height="60" viewBox="0 0 60 60" fill="none" xmlns="http://www.w3.org/2000/svg">
<path d="M51.6903 1H8.95031C4.73638 1 1.32031 4.41607 1.32031 8.63V51.37C1.32031 55.5839 4.73638 59 8.95031 59H51.6903C55.9042 59 59.3203 55.5839 59.3203 51.37V8.63C59.3203 4.41607 55.9042 1 51.6903 1Z" fill="#1986C1"/>
<path d="M36.3601 25.9999C36.3601 25.9999 36.4001 26.0399 36.4301 26.0699C38.0301 27.5999 40.6001 27.5199 42.1601 25.8899C43.7001 24.2799 43.6801 21.7599 42.1401 20.2199C42.1201 20.1999 42.1001 20.1799 42.0701 20.1599C41.8401 19.9399 41.4701 19.9499 41.2401 20.1799C41.0201 20.4099 41.0201 20.7899 41.2601 21.0099C42.4001 22.0899 42.4201 23.9299 41.3001 25.0899C40.1901 26.2499 38.3601 26.3199 37.2201 25.2299C36.6701 24.6999 36.3601 23.9899 36.3501 23.2299C36.3501 22.4599 36.6301 21.7199 37.1701 21.1499C37.6701 20.6199 38.3401 20.2999 39.0601 20.2399C39.3801 20.2099 39.6201 19.9299 39.5901 19.6099C39.5601 19.2899 39.2801 19.0499 38.9601 19.0799C37.9601 19.1599 37.0201 19.6099 36.3201 20.3499C35.5701 21.1399 35.1601 22.1699 35.1701 23.2499C35.1801 24.2999 35.5901 25.2799 36.3301 26.0199L36.3601 25.9999Z" fill="white"/>
<path d="M31.9698 43.0899C31.6498 42.7699 31.2898 42.4999 30.8998 42.2799C31.7098 40.7799 31.4698 38.8999 30.2398 37.6399L32.2298 35.0399C32.3298 35.0899 32.4298 35.1099 32.5398 35.0999C34.4198 34.9199 36.5098 34.1299 38.5698 32.8799L38.6998 33.6099C38.9398 34.9599 38.5098 36.3499 37.5398 37.3199L36.4098 38.4499L35.6398 35.5099C35.5598 35.1999 35.2398 35.0099 34.9298 35.0899C34.6198 35.1699 34.4298 35.4899 34.5098 35.7999L35.5398 39.7299C35.5698 39.8299 35.6198 39.9199 35.6898 39.9899C35.7598 40.0599 35.8498 40.1099 35.9498 40.1399C36.1498 40.1899 36.3698 40.1399 36.5198 39.9899L38.3698 38.1399C39.6098 36.8999 40.1698 35.1299 39.8598 33.3999L39.6398 32.1899C40.8098 31.3799 41.9498 30.4299 43.0298 29.3499C45.1298 27.2499 46.8498 24.2899 47.7598 21.2099C48.6398 18.2399 48.5698 15.8799 47.5798 14.8799C46.5898 13.8799 44.2198 13.8199 41.2498 14.6999C38.1798 15.6099 35.2098 17.3299 33.1098 19.4299C32.0298 20.5099 31.0798 21.6499 30.2698 22.8199L29.0598 22.5999C27.3298 22.2899 25.5598 22.8499 24.3198 24.0899L22.4698 25.9399C22.3198 26.0899 22.2598 26.2999 22.3198 26.5099C22.3498 26.6099 22.3998 26.6999 22.4698 26.7699C22.5398 26.8399 22.6298 26.8999 22.7298 26.9199L26.6598 27.9499C26.9698 28.0299 27.2898 27.8499 27.3698 27.5299C27.4498 27.2199 27.2698 26.8999 26.9498 26.8199L24.0098 26.0499L25.1398 24.9199C26.1098 23.9499 27.4998 23.5199 28.8498 23.7599L29.5798 23.8899C28.3298 25.9499 27.5398 28.0399 27.3598 29.9199C27.3498 30.0299 27.3698 30.1399 27.4198 30.2299L24.4498 32.4799C23.2898 31.3899 21.5998 31.1499 20.1998 31.8299C20.0398 31.6099 19.8698 31.4099 19.6798 31.2199C17.6998 29.2399 14.3198 29.1399 12.4498 31.0099C12.2198 31.2399 12.2198 31.6099 12.4498 31.8399C12.6798 32.0699 13.0498 32.0699 13.2798 31.8399C14.7098 30.4099 17.3198 30.5099 18.8598 32.0499C18.9998 32.1899 19.1298 32.3399 19.2398 32.4999C19.2198 32.5199 19.1898 32.5399 19.1698 32.5699C18.5398 33.1999 18.1598 34.0299 18.0798 34.9099C18.0598 35.0899 18.1298 35.2599 18.2498 35.3799C18.3398 35.4699 18.4698 35.5399 18.6098 35.5499C18.9298 35.5799 19.2198 35.3399 19.2398 35.0199C19.2998 34.4099 19.5598 33.8299 19.9998 33.3999C20.1098 33.2899 20.2198 33.1899 20.3498 33.1099C21.3198 32.4299 22.5998 32.4899 23.5098 33.2199L23.4698 33.2499C23.2098 33.4399 23.1598 33.8099 23.3598 34.0699C23.3798 34.0899 23.3898 34.1099 23.4098 34.1299C23.6098 34.3299 23.9398 34.3599 24.1798 34.1799L28.2498 31.1099L29.8198 32.6799L31.3898 34.2499L29.3198 36.9599C27.8098 36.1499 25.8898 36.3999 24.6498 37.6399C24.4198 37.8699 24.4198 38.2399 24.6498 38.4699C24.8798 38.6999 25.2498 38.6999 25.4798 38.4699C26.4498 37.4999 28.0098 37.3899 29.1098 38.2099C29.2198 38.2899 29.3198 38.3799 29.4098 38.4699C30.4198 39.4799 30.4998 41.0699 29.6098 42.1799C29.6098 42.1799 29.5998 42.1999 29.5898 42.2099C29.5798 42.2199 29.5698 42.2399 29.5598 42.2599C29.5498 42.2799 29.5398 42.2999 29.5298 42.3199C29.5298 42.3199 29.5298 42.3399 29.5198 42.3499C29.5198 42.3499 29.5198 42.3599 29.5198 42.3699C29.5198 42.3899 29.5098 42.4199 29.4998 42.4399C29.4998 42.4499 29.4998 42.4699 29.4998 42.4799C29.4998 42.4999 29.4998 42.5199 29.4998 42.5499C29.4998 42.5599 29.4998 42.5799 29.4998 42.5899C29.4998 42.6099 29.4998 42.6399 29.4998 42.6599C29.4998 42.6699 29.4998 42.6799 29.4998 42.6999C29.4998 42.7399 29.5198 42.7699 29.5298 42.7999C29.5398 42.8299 29.5598 42.8599 29.5798 42.8899C29.5798 42.8999 29.5998 42.9099 29.6098 42.9199C29.6198 42.9399 29.6298 42.9499 29.6498 42.9699C29.6498 42.9699 29.6498 42.9699 29.6598 42.9699C29.6698 42.9699 29.6798 42.9899 29.6898 42.9999C29.6898 42.9999 29.7098 43.0099 29.7098 43.0199C29.7298 43.0299 29.7398 43.0399 29.7598 43.0499C29.7798 43.0599 29.7998 43.0699 29.8098 43.0799C29.8098 43.0799 29.8298 43.0799 29.8398 43.0899C30.3398 43.2799 30.7798 43.5699 31.1598 43.9499C32.6198 45.4099 32.5698 48.1199 31.0598 49.6299C30.8298 49.8599 30.8298 50.2299 31.0598 50.4599C31.2898 50.6899 31.6598 50.6899 31.8898 50.4599C33.8698 48.4799 33.9198 45.0499 31.9898 43.1199L31.9698 43.0899ZM33.9298 20.2599C35.8998 18.2899 38.6798 16.6799 41.5698 15.8199C44.3698 14.9899 46.2098 15.1799 46.7398 15.7099C47.2698 16.2399 47.4598 18.0799 46.6298 20.8799C45.7798 23.7699 44.1598 26.5599 42.1898 28.5199C40.0798 30.6299 37.7098 32.2399 35.4498 33.1499L30.8198 28.5199C30.5898 28.2899 30.2198 28.2899 29.9898 28.5199C29.7598 28.7499 29.7598 29.1199 29.9898 29.3499L34.2198 33.5799C33.6998 33.7299 33.1798 33.8399 32.6898 33.9099L30.6198 31.8399L28.5498 29.7699C28.9298 26.7999 30.9298 23.2799 33.9298 20.2699V20.2599Z" fill="white"/>
</svg>
