<svg width="60" height="60" viewBox="0 0 60 60" fill="none" xmlns="http://www.w3.org/2000/svg">
<path d="M51.2196 0.870117H8.47961C4.26568 0.870117 0.849609 4.28618 0.849609 8.50012V51.2401C0.849609 55.4541 4.26568 58.8701 8.47961 58.8701H51.2196C55.4335 58.8701 58.8496 55.4541 58.8496 51.2401V8.50012C58.8496 4.28618 55.4335 0.870117 51.2196 0.870117Z" fill="#1986C1"/>
<path d="M44.1208 33.21C41.9208 32.79 40.4708 32.15 39.5708 31.21C39.4508 31.08 39.2708 31.01 39.1008 31.01C38.9308 31.01 38.7508 31.08 38.6308 31.21C37.7308 32.15 36.2808 32.79 34.0808 33.21C33.7708 33.27 33.5508 33.54 33.5508 33.85V38.92C33.5508 40.99 34.7108 42.85 36.5708 43.77L38.8208 44.88C38.9108 44.92 39.0108 44.95 39.1108 44.95C39.2108 44.95 39.3108 44.93 39.4008 44.88L41.6508 43.77C43.5108 42.85 44.6708 40.99 44.6708 38.92V33.85C44.6708 33.54 44.4508 33.26 44.1408 33.21H44.1208ZM43.3408 34.4V38.93C43.3408 40.5 42.4608 41.91 41.0608 42.6L39.1008 43.57L37.1408 42.6C35.7308 41.91 34.8608 40.5 34.8608 38.93V34.4C36.7508 33.99 38.1108 33.4 39.1108 32.57C40.1108 33.4 41.4708 33.99 43.3608 34.4H43.3408Z" fill="white"/>
<path d="M37.7498 37.68C37.6298 37.56 37.4598 37.49 37.2898 37.49C37.1198 37.49 36.9498 37.56 36.8298 37.68C36.5698 37.94 36.5698 38.35 36.8298 38.61L38.3598 40.14C38.4798 40.26 38.6498 40.33 38.8198 40.33C38.9898 40.33 39.1598 40.26 39.2798 40.14L42.0898 37.33C42.2098 37.21 42.2798 37.04 42.2798 36.87C42.2798 36.7 42.2098 36.53 42.0898 36.41C41.9698 36.29 41.7998 36.22 41.6298 36.22C41.4598 36.22 41.2898 36.29 41.1698 36.41L38.8198 38.76L37.7598 37.7L37.7498 37.68Z" fill="white"/>
<path d="M33.6105 43.64H17.6005C16.9205 43.64 16.3605 43.08 16.3605 42.4V27.76C16.3605 27.08 16.9205 26.52 17.6005 26.52H37.2005C37.8805 26.52 38.4405 27.08 38.4405 27.76V29.49C38.4405 29.85 38.7305 30.15 39.1005 30.15C39.4705 30.15 39.7605 29.86 39.7605 29.49V27.76C39.7605 26.35 38.6205 25.21 37.2105 25.21H34.9905V22.35C34.9905 18.17 31.5905 14.77 27.4105 14.77C23.2305 14.77 19.8305 18.17 19.8305 22.35V25.21H17.6105C16.2005 25.21 15.0605 26.35 15.0605 27.76V42.4C15.0605 43.81 16.2005 44.95 17.6105 44.95H33.6205C33.9805 44.95 34.2805 44.66 34.2805 44.29C34.2805 43.92 33.9905 43.63 33.6205 43.63L33.6105 43.64ZM33.6605 25.21H32.2405V22.22C32.2405 19.55 30.0705 17.38 27.4005 17.38C24.7305 17.38 22.5605 19.55 22.5605 22.22V25.21H21.1405V22.35C21.1405 18.89 23.9505 16.08 27.4105 16.08C30.8705 16.08 33.6805 18.89 33.6805 22.35V25.21H33.6605ZM23.8705 22.23C23.8705 20.28 25.4505 18.7 27.4005 18.7C29.3505 18.7 30.9305 20.28 30.9305 22.23V25.22H23.8705V22.23Z" fill="white"/>
<path d="M27.4001 40.38C28.3301 40.38 29.1001 39.62 29.1001 38.68V35.47C29.7801 34.95 30.1801 34.13 30.1801 33.27C30.1801 32.52 29.8801 31.81 29.3501 31.29C28.8101 30.76 28.1001 30.48 27.3501 30.49C26.6101 30.5 25.9201 30.81 25.4001 31.36C24.8801 31.91 24.6001 32.61 24.6201 33.35C24.6401 34.18 25.0501 34.96 25.7001 35.47V38.68C25.7001 39.61 26.4601 40.38 27.4001 40.38ZM27.4001 31.8C27.7901 31.8 28.1501 31.95 28.4301 32.22C28.7101 32.5 28.8701 32.87 28.8701 33.27C28.8701 33.8 28.5801 34.29 28.1201 34.55C27.9101 34.67 27.7901 34.89 27.7901 35.12V38.68C27.7901 38.89 27.6201 39.06 27.4101 39.06C27.2001 39.06 27.0301 38.89 27.0301 38.68V35.12C27.0301 34.88 26.9001 34.66 26.7001 34.55C26.2501 34.3 25.9601 33.82 25.9501 33.31C25.9401 32.92 26.0901 32.55 26.3601 32.26C26.6401 31.97 27.0001 31.81 27.3901 31.8H27.4101H27.4001Z" fill="white"/>
</svg>
