<svg width="61" height="60" viewBox="0 0 61 60" fill="none" xmlns="http://www.w3.org/2000/svg">
<path d="M51.8095 0.870117H9.06945C4.85552 0.870117 1.43945 4.28618 1.43945 8.50012V51.2401C1.43945 55.4541 4.85552 58.8701 9.06945 58.8701H51.8095C56.0234 58.8701 59.4395 55.4541 59.4395 51.2401V8.50012C59.4395 4.28618 56.0234 0.870117 51.8095 0.870117Z" fill="#1986C1"/>
<path d="M38.7496 35.75L39.2596 38.59C39.3196 38.9 39.5796 39.12 39.8896 39.12C39.9296 39.12 39.9696 39.12 39.9996 39.11C40.3496 39.05 40.5796 38.71 40.5196 38.36L40.0096 35.52C39.7696 34.21 38.7296 33.18 37.4196 32.97L33.3796 32.31L33.1696 31.94C32.9896 31.63 32.5996 31.53 32.2896 31.7C31.9796 31.88 31.8796 32.27 32.0496 32.58L32.0896 32.65L30.4296 33.57L28.7696 32.65L28.8096 32.58C28.9896 32.27 28.8796 31.88 28.5696 31.7C28.2596 31.52 27.8696 31.63 27.6896 31.94L27.4796 32.31L23.4396 32.97C22.1296 33.18 21.0796 34.21 20.8496 35.52L20.3396 38.36C20.2796 38.71 20.5096 39.04 20.8596 39.11C21.2096 39.17 21.5396 38.94 21.6096 38.59L22.1196 35.75C22.2596 34.97 22.8796 34.37 23.6496 34.24L27.7696 33.57L30.1096 34.88C30.3096 34.99 30.5396 34.99 30.7396 34.88L33.0796 33.57L37.1996 34.24C37.9796 34.37 38.5896 34.97 38.7296 35.75H38.7496Z" fill="white"/>
<path d="M25.77 26.5601C25.84 27.1501 26.02 27.9301 26.44 28.3301C26.72 29.2801 27.2 30.1401 27.79 30.7701C28.53 31.5601 29.45 31.9801 30.44 31.9801C32.67 31.9801 33.98 30.0901 34.47 28.3001C34.87 27.8901 35.04 27.1101 35.11 26.5101C35.15 25.9101 34.99 25.4601 34.64 25.1601C34.64 22.7701 33.64 21.9601 33.1 21.5301L33.07 21.5001C32.15 20.7401 30.39 20.4901 29.14 20.6401C28.22 20.7501 27.8 20.9601 27.55 21.4601C26.34 22.1201 26.22 24.2001 26.23 25.1701C25.88 25.4701 25.73 25.9201 25.77 26.5201C25.77 26.5301 25.77 26.5501 25.77 26.5601ZM28.18 22.5901C28.52 22.4201 28.64 22.1701 28.7 22.0501C28.76 22.0301 28.91 21.9701 29.29 21.9301C30.37 21.8101 31.73 22.0701 32.26 22.5101L32.29 22.5401C32.74 22.9101 33.42 23.4701 33.35 25.5101C33.35 25.7801 33.5 26.0301 33.75 26.1301C33.8 26.1501 33.84 26.1701 33.83 26.4201C33.78 26.8701 33.65 27.2701 33.58 27.3901C33.43 27.4801 33.32 27.6201 33.27 27.8001C33.11 28.4801 32.42 30.7201 30.43 30.7201C28.91 30.7201 27.96 29.1401 27.61 27.8001C27.56 27.6301 27.45 27.4801 27.3 27.4001C27.23 27.2901 27.1 26.8901 27.04 26.4501C27.03 26.1801 27.07 26.1601 27.12 26.1501C27.38 26.0501 27.54 25.7901 27.52 25.5101C27.45 24.4601 27.64 22.8801 28.17 22.6201L28.18 22.5901Z" fill="white"/>
<path d="M17.1305 23.7499C17.4805 23.7499 17.7705 23.4599 17.7705 23.1099V17.9899C17.7705 17.5599 18.1205 17.2099 18.5505 17.2099H23.6705C24.0205 17.2099 24.3105 16.9199 24.3105 16.5699C24.3105 16.2199 24.0205 15.9299 23.6705 15.9299H18.5505C17.4105 15.9299 16.4805 16.8599 16.4805 17.9999V23.1199C16.4805 23.4699 16.7705 23.7599 17.1205 23.7599L17.1305 23.7499Z" fill="white"/>
<path d="M43.7405 35.98C43.3905 35.98 43.1005 36.27 43.1005 36.62V41.74C43.1005 42.17 42.7505 42.52 42.3205 42.52H37.2005C36.8505 42.52 36.5605 42.81 36.5605 43.16C36.5605 43.51 36.8505 43.8 37.2005 43.8H42.3205C43.4605 43.8 44.3905 42.87 44.3905 41.73V36.61C44.3905 36.26 44.1005 35.97 43.7505 35.97L43.7405 35.98Z" fill="white"/>
<path d="M42.3205 15.9199H37.2005C36.8505 15.9199 36.5605 16.2099 36.5605 16.5599C36.5605 16.9099 36.8505 17.1999 37.2005 17.1999H42.3205C42.7505 17.1999 43.1005 17.5499 43.1005 17.9799V23.0999C43.1005 23.4499 43.3905 23.7399 43.7405 23.7399C44.0905 23.7399 44.3805 23.4499 44.3805 23.0999V17.9799C44.3805 16.8399 43.4505 15.9099 42.3105 15.9099L42.3205 15.9199Z" fill="white"/>
<path d="M23.68 42.53H18.56C18.13 42.53 17.78 42.18 17.78 41.75V36.63C17.78 36.28 17.49 35.99 17.14 35.99C16.79 35.99 16.5 36.28 16.5 36.63V41.75C16.5 42.89 17.43 43.82 18.57 43.82H23.69C24.04 43.82 24.33 43.53 24.33 43.18C24.33 42.83 24.04 42.54 23.69 42.54L23.68 42.53Z" fill="white"/>
</svg>
