<svg width="24" height="26" viewBox="0 0 24 26" fill="none" xmlns="http://www.w3.org/2000/svg">
<path id="Vector" d="M23.9449 1.98394L23.7924 0.38208L22.2668 0.890606C19.6522 1.79902 16.8602 2.07778 14.1177 1.70425C11.2358 1.25701 8.28605 1.65443 5.62529 2.84843C4.21473 3.44906 2.97682 4.39297 2.02425 5.59423C1.07169 6.79549 0.434718 8.21593 0.171344 9.72625C-0.170158 11.6773 0.000685321 13.6836 0.667157 15.5489C1.0963 14.5802 1.59776 13.6453 2.16731 12.752C3.45922 10.8512 5.24933 9.34254 7.34156 8.39137C9.35716 7.47109 11.5603 7.03569 13.7744 7.12005C11.6668 7.44305 9.64933 8.20068 7.85009 9.34485C6.98254 9.89028 6.18794 10.5439 5.48544 11.29C4.8139 12.036 4.22168 12.8498 3.71831 13.7182C2.7733 15.5337 2.10076 17.4785 1.72235 19.4899C1.31451 21.5079 1.09322 23.5592 1.06126 25.6177H3.60389C3.72471 23.7717 3.97535 21.9364 4.35397 20.1256C6.11784 21.0781 8.0959 21.5638 10.1003 21.5368C11.9698 21.5355 13.82 21.1594 15.5415 20.4307C25.2163 16.2989 23.9449 2.55603 23.9449 1.98394Z" fill="white"/>
</svg>
