<svg width="33" height="33" viewBox="0 0 33 33" fill="none" xmlns="http://www.w3.org/2000/svg">
<g clip-path="url(#clip0_11202_1471)">
<rect x="0.5" y="0.800049" width="32" height="32" rx="4" fill="#007BB5"/>
<path d="M6.72655 13.41H10.9166V26.89H6.72655V13.41ZM8.82155 6.70996C9.46603 6.70996 10.0841 6.96598 10.5398 7.42169C10.9955 7.8774 11.2516 8.49549 11.2516 9.13996C11.2516 9.78444 10.9955 10.4025 10.5398 10.8582C10.0841 11.3139 9.46603 11.57 8.82155 11.57C7.47755 11.57 6.39355 10.48 6.39355 9.13996C6.39355 7.79996 7.47755 6.70996 8.82155 6.70996ZM13.5416 13.41H17.5616V15.25H17.6196C18.1796 14.192 19.5466 13.074 21.5846 13.074C25.8226 13.074 26.6046 15.866 26.6046 19.494V26.889H22.4216V20.329C22.4216 18.765 22.3916 16.755 20.2436 16.755C18.0636 16.755 17.7296 18.455 17.7296 20.215V26.883H13.5426L13.5416 13.41Z" fill="white"/>
</g>
<defs>
<clipPath id="clip0_11202_1471">
<rect x="0.5" y="0.800049" width="32" height="32" rx="4" fill="white"/>
</clipPath>
</defs>
</svg>
