<svg width="33" height="33" viewBox="0 0 33 33" fill="none" xmlns="http://www.w3.org/2000/svg">
<g clip-path="url(#clip0_11202_1465)">
<rect x="0.5" y="0.800049" width="32" height="32" rx="4" fill="#0084FF"/>
<path d="M16.5004 5.80005C10.4864 5.80005 5.61035 10.36 5.61035 15.982C5.61035 19.182 7.19035 22.036 9.65635 23.902V27.8L13.3724 25.74C14.3624 26.016 15.4124 26.165 16.5004 26.165C22.5144 26.165 27.3904 21.605 27.3904 15.982C27.3904 10.359 22.5134 5.80005 16.5004 5.80005ZM17.6474 19.455L14.8304 16.53L9.40735 19.53L15.3534 13.22L18.1694 16.145L23.5894 13.145L17.6434 19.455H17.6474Z" fill="white"/>
</g>
<defs>
<clipPath id="clip0_11202_1465">
<rect x="0.5" y="0.800049" width="32" height="32" rx="4" fill="white"/>
</clipPath>
</defs>
</svg>
