<svg width="15" height="16" viewBox="0 0 15 16" fill="none" xmlns="http://www.w3.org/2000/svg">
<path d="M3.89844 14.0269H11.8984M6.29844 14.0269C10.6984 12.0269 6.93844 8.90686 8.69844 6.02686" stroke="white" stroke-width="2" stroke-linecap="round" stroke-linejoin="round"/>
<path d="M5.9 5.54693C6.78 6.18693 7.34 7.30693 7.74 8.50693C6.14 8.82693 4.94 8.82693 3.9 8.26693C2.94 7.78693 2.06 6.74693 1.5 4.90693C3.74 4.50693 5.02 4.90693 5.9 5.54693ZM9.58 2.82693C8.97007 3.78018 8.66326 4.89585 8.7 6.02693C10.22 5.94693 11.34 5.54693 12.14 4.90693C12.94 4.10693 13.42 3.06693 13.5 1.22693C11.34 1.30693 10.3 2.02693 9.58 2.82693Z" stroke="white" stroke-width="2" stroke-linecap="round" stroke-linejoin="round"/>
</svg>
