<svg width="33" height="33" viewBox="0 0 33 33" fill="none" xmlns="http://www.w3.org/2000/svg">
<g clip-path="url(#clip0_11202_1462)">
<rect x="0.5" y="0.800049" width="32" height="32" rx="4" fill="#E60023"/>
<path d="M16.495 4.80005C9.861 4.80005 4.5 10.17 4.5 16.795C4.5 21.879 7.66 26.223 12.122 27.971C12.013 27.023 11.924 25.561 12.161 24.525C12.378 23.587 13.563 18.562 13.563 18.562C13.563 18.562 13.207 17.842 13.207 16.785C13.207 15.117 14.175 13.873 15.379 13.873C16.406 13.873 16.899 14.643 16.899 15.561C16.899 16.588 16.249 18.128 15.903 19.559C15.616 20.754 16.505 21.731 17.68 21.731C19.812 21.731 21.451 19.481 21.451 16.242C21.451 13.369 19.388 11.365 16.436 11.365C13.02 11.365 11.016 13.922 11.016 16.568C11.016 17.595 11.411 18.7 11.904 19.303C11.9459 19.3488 11.9753 19.4046 11.9894 19.465C12.0034 19.5255 12.0015 19.5885 11.984 19.648C11.894 20.023 11.687 20.8431 11.648 21.011C11.598 21.228 11.47 21.277 11.243 21.169C9.762 20.458 8.834 18.266 8.834 16.509C8.834 12.728 11.579 9.25205 16.762 9.25205C20.918 9.25205 24.156 12.214 24.156 16.183C24.156 20.32 21.55 23.647 17.936 23.647C16.722 23.647 15.576 23.015 15.192 22.264L14.442 25.118C14.175 26.164 13.444 27.468 12.951 28.267C14.1022 28.6221 15.3003 28.8018 16.505 28.8C23.129 28.8 28.5 23.43 28.5 16.805C28.49 10.17 23.12 4.80005 16.495 4.80005Z" fill="white"/>
</g>
<defs>
<clipPath id="clip0_11202_1462">
<rect x="0.5" y="0.800049" width="32" height="32" rx="4" fill="white"/>
</clipPath>
</defs>
</svg>
