<svg width="48" height="48" viewBox="0 0 48 48" fill="none" xmlns="http://www.w3.org/2000/svg">
<path id="Vector" d="M22.3663 32.7447L21.9572 42.7823L21.9026 43.3824L10.4467 42.5914C9.79209 42.5368 9.18293 42.2504 8.61922 41.7322C8.05552 41.2139 7.62819 40.6184 7.33725 39.9456C7.13723 39.4546 7.00539 38.9545 6.94175 38.4454C6.8781 37.9362 6.91447 37.3453 7.05085 36.6725C7.18723 35.9996 7.29634 35.4996 7.37816 35.1723C7.45999 34.845 7.65547 34.2631 7.9646 33.4266C8.27373 32.5901 8.44648 32.1083 8.48284 31.981C9.9012 32.1992 14.529 32.4538 22.3663 32.7447ZM11.8105 16.761L16.7202 27.0986L12.7106 24.5892C11.565 25.8984 10.5513 27.2122 9.66935 28.5306C8.78743 29.8489 8.12825 30.9854 7.69184 31.9401C7.25542 32.8947 6.89629 33.7539 6.61444 34.5176C6.33258 35.2814 6.16438 35.8542 6.10983 36.236L6.00073 36.8088L0.818281 27.0713C0.509152 26.5985 0.345496 26.0894 0.327312 25.5438C0.309128 24.9983 0.36368 24.571 0.490968 24.2619L0.709177 23.7709C1.34562 22.6253 2.38211 20.916 3.81864 18.643L0 16.2973L11.8105 16.761ZM45.3873 30.8627L40.2594 40.6548C40.0412 41.1821 39.7093 41.6049 39.2638 41.9231C38.8183 42.2413 38.4228 42.4277 38.0773 42.4822L37.5864 42.5914C36.2953 42.7186 34.3041 42.8277 31.6129 42.9187L31.8311 47.3919L25.5576 37.3816L31.3129 27.5077L31.5038 32.2265C34.5951 32.5174 37.1681 32.5629 39.2229 32.3628C41.2777 32.1628 42.8234 31.8628 43.8598 31.4627L45.3873 30.8627ZM23.9756 5.65961C23.121 6.8052 20.7116 10.7602 16.7475 17.5247L8.10098 12.4241L7.58273 12.0968L13.7198 2.38649C14.0835 1.82278 14.629 1.41364 15.3564 1.15907C16.0838 0.90449 16.8111 0.81357 17.5385 0.886306C17.9749 0.922674 18.4159 1.03178 18.8614 1.21362C19.3069 1.39546 19.6887 1.58639 20.007 1.78641C20.3252 1.98644 20.7025 2.28648 21.1389 2.68652C21.5753 3.08657 21.9026 3.40025 22.1209 3.62755C22.3391 3.85485 22.6664 4.21398 23.1028 4.70495C23.5392 5.19592 23.8302 5.51414 23.9756 5.65961ZM41.8414 14.0333L47.6239 23.9345C47.9513 24.6074 48.0649 25.2983 47.9649 26.0075C47.8649 26.7167 47.6148 27.3895 47.2148 28.026C46.9784 28.3896 46.6784 28.726 46.3147 29.0352C45.951 29.3443 45.6055 29.5989 45.2782 29.7989C44.9509 29.9989 44.5099 30.1989 43.9553 30.399C43.4007 30.599 42.9734 30.7445 42.6733 30.8354C42.3733 30.9263 41.9051 31.0536 41.2686 31.2172C40.6322 31.3809 40.214 31.49 40.0139 31.5446C39.3957 30.2353 36.9863 26.2712 32.7858 19.6522L41.3232 14.3334L41.8414 14.0333ZM37.9409 7.86897L41.8141 5.60506L35.8134 15.779L24.3848 15.2335L28.5034 12.8878C27.8852 11.2694 27.2033 9.76011 26.4577 8.35994C25.7122 6.95977 25.0258 5.8369 24.3984 4.99135C23.7711 4.14579 23.1846 3.41843 22.6391 2.80927C22.0936 2.2001 21.6663 1.77732 21.3571 1.54093L20.8934 1.18634L31.9402 1.21362C32.5039 1.15907 33.0313 1.25453 33.5222 1.50002C34.0132 1.7455 34.3678 2.00462 34.586 2.27738L34.886 2.68652C35.5952 3.79575 36.6135 5.52323 37.9409 7.86897Z" fill="white"/>
</svg>
