<svg width="48" height="47" viewBox="0 0 48 47" fill="none" xmlns="http://www.w3.org/2000/svg">
<path id="Vector" d="M22.3663 32.3006L21.9572 42.3382L21.9026 42.9383L10.4467 42.1473C9.79209 42.0927 9.18293 41.8063 8.61922 41.2881C8.05552 40.7698 7.62819 40.1743 7.33725 39.5015C7.13723 39.0105 7.00539 38.5105 6.94175 38.0013C6.8781 37.4921 6.91447 36.9012 7.05085 36.2284C7.18723 35.5556 7.29634 35.0555 7.37816 34.7282C7.45999 34.4009 7.65547 33.819 7.9646 32.9825C8.27373 32.146 8.44648 31.6642 8.48284 31.5369C9.9012 31.7551 14.529 32.0097 22.3663 32.3006ZM11.8105 16.3169L16.7202 26.6545L12.7106 24.1451C11.565 25.4543 10.5513 26.7681 9.66935 28.0865C8.78743 29.4048 8.12825 30.5413 7.69184 31.496C7.25542 32.4506 6.89629 33.3098 6.61444 34.0736C6.33258 34.8373 6.16438 35.4101 6.10983 35.7919L6.00073 36.3647L0.818281 26.6272C0.509152 26.1544 0.345496 25.6453 0.327312 25.0997C0.309128 24.5542 0.36368 24.1269 0.490968 23.8178L0.709177 23.3268C1.34562 22.1812 2.38211 20.4719 3.81864 18.1989L0 15.8532L11.8105 16.3169ZM45.3873 30.4186L40.2594 40.2107C40.0412 40.738 39.7093 41.1608 39.2638 41.479C38.8183 41.7972 38.4228 41.9836 38.0773 42.0382L37.5864 42.1473C36.2953 42.2745 34.3041 42.3837 31.6129 42.4746L31.8311 46.9478L25.5576 36.9375L31.3129 27.0636L31.5038 31.7824C34.5951 32.0733 37.1681 32.1188 39.2229 31.9187C41.2777 31.7187 42.8234 31.4187 43.8598 31.0186L45.3873 30.4186ZM23.9756 5.21552C23.121 6.36111 20.7116 10.3161 16.7475 17.0806L8.10098 11.98L7.58273 11.6527L13.7198 1.9424C14.0835 1.37869 14.629 0.969551 15.3564 0.714974C16.0838 0.460398 16.8111 0.369478 17.5385 0.442214C17.9749 0.478582 18.4159 0.587686 18.8614 0.769526C19.3069 0.951367 19.6887 1.1423 20.007 1.34232C20.3252 1.54235 20.7025 1.84238 21.1389 2.24243C21.5753 2.64248 21.9026 2.95615 22.1209 3.18345C22.3391 3.41075 22.6664 3.76989 23.1028 4.26086C23.5392 4.75183 23.8302 5.07005 23.9756 5.21552ZM41.8414 13.5893L47.6239 23.4905C47.9513 24.1633 48.0649 24.8543 47.9649 25.5634C47.8649 26.2726 47.6148 26.9454 47.2148 27.5819C46.9784 27.9455 46.6784 28.2819 46.3147 28.5911C45.951 28.9002 45.6055 29.1548 45.2782 29.3548C44.9509 29.5548 44.5099 29.7549 43.9553 29.9549C43.4007 30.1549 42.9734 30.3004 42.6733 30.3913C42.3733 30.4822 41.9051 30.6095 41.2686 30.7732C40.6322 30.9368 40.214 31.0459 40.0139 31.1005C39.3957 29.7912 36.9863 25.8271 32.7858 19.2081L41.3232 13.8893L41.8414 13.5893ZM37.9409 7.42488L41.8141 5.16097L35.8134 15.3349L24.3848 14.7894L28.5034 12.4437C27.8852 10.8253 27.2033 9.31601 26.4577 7.91585C25.7122 6.51568 25.0258 5.39281 24.3984 4.54726C23.7711 3.7017 23.1846 2.97434 22.6391 2.36517C22.0936 1.75601 21.6663 1.33323 21.3571 1.09684L20.8934 0.74225L31.9402 0.769526C32.5039 0.714974 33.0313 0.81044 33.5222 1.05592C34.0132 1.30141 34.3678 1.56053 34.586 1.83329L34.886 2.24243C35.5952 3.35166 36.6135 5.07914 37.9409 7.42488Z" fill="#4FC372"/>
</svg>
