<svg width="33" height="33" viewBox="0 0 33 33" fill="none" xmlns="http://www.w3.org/2000/svg">
<g clip-path="url(#clip0_11202_1474)">
<rect x="0.5" y="0.800049" width="32" height="32" rx="4" fill="#12AF0A"/>
<path fill-rule="evenodd" clip-rule="evenodd" d="M16.71 5.20996C10.473 5.20996 5.417 10.265 5.417 16.5C5.417 18.634 6.009 20.63 7.037 22.332L5 28.39L11.25 26.388C12.9212 27.3122 14.8003 27.7954 16.71 27.792C22.944 27.792 28 22.737 28 16.502C28 10.265 22.944 5.20996 16.71 5.20996ZM16.71 25.9C14.8 25.9 13.02 25.33 11.537 24.347L7.927 25.503L9.1 22.013C7.93461 20.4116 7.30782 18.4815 7.31 16.501C7.31 11.321 11.527 7.10096 16.71 7.10096C21.893 7.10096 26.107 11.321 26.107 16.501C26.107 21.689 21.893 25.901 16.709 25.901L16.71 25.9ZM22.003 19.068C21.719 18.913 20.33 18.162 20.069 18.056C19.804 17.95 19.614 17.896 19.411 18.176C19.208 18.456 18.631 19.086 18.457 19.272C18.281 19.458 18.112 19.475 17.829 19.32C17.547 19.166 16.629 18.826 15.565 17.803C14.735 17.008 14.192 16.043 14.035 15.748C13.878 15.453 14.035 15.303 14.185 15.164C14.319 15.04 14.485 14.838 14.635 14.676C14.785 14.513 14.838 14.396 14.941 14.206C15.045 14.016 15.001 13.846 14.936 13.7C14.87 13.553 14.346 12.113 14.126 11.527C13.908 10.941 13.666 11.029 13.496 11.022C13.328 11.015 13.138 10.984 12.946 10.977C12.756 10.97 12.436 11.031 12.166 11.309C11.889 11.583 11.116 12.252 11.066 13.671C11.011 15.089 11.992 16.497 12.13 16.694C12.267 16.894 14.004 19.966 16.89 21.231C19.778 22.495 19.79 22.109 20.32 22.081C20.85 22.054 22.054 21.448 22.32 20.784C22.586 20.12 22.607 19.544 22.54 19.421C22.47 19.298 22.28 19.218 22 19.064L22.003 19.068Z" fill="white"/>
</g>
<defs>
<clipPath id="clip0_11202_1474">
<rect x="0.5" y="0.800049" width="32" height="32" rx="4" fill="white"/>
</clipPath>
</defs>
</svg>
