<svg width="14" height="16" viewBox="0 0 14 16" fill="none" xmlns="http://www.w3.org/2000/svg">
<path d="M3.39844 14.5815H11.3984M5.79844 14.5815C10.1984 12.5815 6.43844 9.46153 8.19844 6.58153" stroke="white" stroke-width="2" stroke-linecap="round" stroke-linejoin="round"/>
<path d="M5.4 6.10165C6.28 6.74165 6.84 7.86165 7.24 9.06165C5.64 9.38165 4.44 9.38165 3.4 8.82165C2.44 8.34165 1.56 7.30165 1 5.46165C3.24 5.06165 4.52 5.46165 5.4 6.10165ZM9.08 3.38165C8.47007 4.33489 8.16326 5.45057 8.2 6.58165C9.72 6.50165 10.84 6.10165 11.64 5.46165C12.44 4.66165 12.92 3.62165 13 1.78165C10.84 1.86165 9.8 2.58165 9.08 3.38165Z" stroke="white" stroke-width="2" stroke-linecap="round" stroke-linejoin="round"/>
</svg>
