<svg width="13" height="14" viewBox="0 0 13 14" fill="none" xmlns="http://www.w3.org/2000/svg">
<path d="M12.5565 1.2233L12.4765 0.383301L11.6765 0.649967C10.3055 1.12633 8.84136 1.27251 7.40318 1.07663C5.89195 0.842108 4.34513 1.05051 2.94985 1.67663C2.21017 1.9916 1.56102 2.48658 1.0615 3.11651C0.561982 3.74644 0.227962 4.49131 0.0898514 5.2833C-0.0892292 6.30643 0.000359376 7.35852 0.349851 8.33663C0.574888 7.82869 0.837853 7.33842 1.13652 6.86997C1.81398 5.87319 2.7527 5.08209 3.84985 4.5833C4.90681 4.10072 6.06211 3.8724 7.22318 3.91663C6.11796 4.08601 5.06003 4.48331 4.11652 5.0833C3.66159 5.36932 3.2449 5.71207 2.87652 6.1033C2.52437 6.49451 2.21381 6.92125 1.94985 7.37663C1.45429 8.32868 1.10162 9.34851 0.903185 10.4033C0.689319 11.4615 0.573274 12.5372 0.556518 13.6166H1.88985C1.9532 12.6486 2.08464 11.6862 2.28318 10.7366C3.20814 11.2361 4.24542 11.4908 5.29652 11.4766C6.27683 11.476 7.24707 11.2787 8.14985 10.8966C13.2232 8.72997 12.5565 1.5233 12.5565 1.2233Z" fill="white"/>
</svg>
