<svg width="17" height="18" viewBox="0 0 17 18" fill="none" xmlns="http://www.w3.org/2000/svg">
<path d="M8.23438 4.07812C9.99414 4.07812 11.4219 5.50586 11.4219 7.26562C11.4219 9.02539 9.99414 10.4531 8.23438 10.4531C6.47461 10.4531 5.04688 9.02539 5.04688 7.26562C5.04688 5.50586 6.47461 4.07812 8.23438 4.07812ZM8.23438 8.85938C9.09766 8.85938 9.82812 8.16211 9.82812 7.26562C9.82812 6.40234 9.09766 5.67188 8.23438 5.67188C7.33789 5.67188 6.64062 6.40234 6.64062 7.26562C6.64062 8.16211 7.33789 8.85938 8.23438 8.85938ZM8.23438 0.890625C12.7832 0.890625 16.4688 4.57617 16.4688 9.125C16.4688 13.6738 12.7832 17.3594 8.23438 17.3594C3.68555 17.3594 0 13.6738 0 9.125C0 4.57617 3.68555 0.890625 8.23438 0.890625ZM8.23438 15.7656C9.86133 15.7656 11.3887 15.168 12.5508 14.1719C12.0527 13.4082 11.1895 12.9102 10.2266 12.877C9.5293 13.0762 8.86523 13.1758 8.23438 13.1758C7.57031 13.1758 6.90625 13.0762 6.20898 12.877C5.24609 12.877 4.38281 13.4082 3.88477 14.1719C5.04688 15.168 6.57422 15.7656 8.23438 15.7656ZM13.6133 12.9766C14.4102 11.9141 14.875 10.5859 14.875 9.125C14.875 5.47266 11.8867 2.48438 8.23438 2.48438C4.54883 2.48438 1.59375 5.47266 1.59375 9.125C1.59375 10.5859 2.02539 11.9141 2.82227 12.9766C3.61914 11.9473 4.88086 11.25 6.30859 11.25C6.64062 11.25 7.17188 11.582 8.23438 11.582C9.26367 11.582 9.79492 11.25 10.127 11.25C11.5547 11.25 12.8164 11.9473 13.6133 12.9766Z" fill="#1986C1"/>
</svg>
