<svg width="58" height="58" viewBox="0 0 58 58" fill="none" xmlns="http://www.w3.org/2000/svg">
<rect width="58" height="58" rx="8" fill="#1986C1"/>
<g clip-path="url(#clip0_11206_4267)">
<path d="M16.6922 9.5C15.0122 9.5 13.6152 10.862 13.6152 12.5V41C13.6152 42.638 15.0122 44 16.6922 44H19.7691V48.5L24.3845 45.5L28.9998 48.5V37.766C28.7875 37.8853 28.5613 37.9795 28.326 38.0465C28.1616 38.3926 27.9283 38.7035 27.6396 38.961C27.3509 39.2185 27.0127 39.4175 26.6445 39.5465C26.3191 39.6508 25.9775 39.6985 25.6352 39.6875C25.2045 39.6875 24.7737 39.6335 24.3845 39.4535C23.9902 39.6202 23.5632 39.7001 23.1337 39.6875C22.7891 39.6875 22.4522 39.662 22.1245 39.5465C21.3819 39.2834 20.7767 38.744 20.4414 38.0465C20.2066 37.9794 19.9809 37.8852 19.7691 37.766V41H16.6922V12.5H41.3075V41H33.6152C33.2072 41 32.8159 41.158 32.5274 41.4393C32.2389 41.7206 32.0768 42.1022 32.0768 42.5C32.0768 42.8978 32.2389 43.2794 32.5274 43.5607C32.8159 43.842 33.2072 44 33.6152 44H41.3075C42.9875 44 44.3845 42.638 44.3845 41V12.5C44.3845 10.862 42.9875 9.5 41.3075 9.5H16.6922ZM21.0198 17C20.6118 17.0372 20.2357 17.2309 19.9741 17.5385C19.7126 17.8461 19.5871 18.2424 19.6252 18.6403C19.6634 19.0381 19.8621 19.4048 20.1776 19.6598C20.493 19.9148 20.8995 20.0372 21.3075 20H36.6922C37.1002 20 37.4915 19.842 37.78 19.5607C38.0685 19.2794 38.2306 18.8978 38.2306 18.5C38.2306 18.1022 38.0685 17.7206 37.78 17.4393C37.4915 17.158 37.1002 17 36.6922 17H21.3075C21.2594 16.9978 21.2111 16.9978 21.1629 17C21.1153 16.9978 21.0675 16.9978 21.0198 17ZM21.0198 23C20.6118 23.0372 20.2357 23.2309 19.9741 23.5385C19.7126 23.8461 19.5871 24.2424 19.6252 24.6403C19.6634 25.0381 19.8621 25.4048 20.1776 25.6598C20.493 25.9148 20.8995 26.0372 21.3075 26H32.0768C32.4848 26 32.8761 25.842 33.1646 25.5607C33.4531 25.2794 33.6152 24.8978 33.6152 24.5C33.6152 24.1022 33.4531 23.7206 33.1646 23.4393C32.8761 23.158 32.4848 23 32.0768 23H21.3075C21.2594 22.9978 21.2111 22.9978 21.1629 23C21.1153 22.9978 21.0675 22.9978 21.0198 23ZM24.3845 28.484C24.0755 28.4843 23.7746 28.5796 23.5243 28.7562C23.2741 28.9329 23.0873 29.1819 22.9906 29.468C22.9275 29.489 22.8583 29.492 22.7983 29.516C22.538 29.3646 22.2355 29.2967 21.9335 29.322C21.6314 29.3473 21.3452 29.4645 21.1152 29.657C20.8828 29.8462 20.7164 30.101 20.639 30.3864C20.5615 30.6718 20.5769 30.9735 20.6829 31.25C20.6414 31.3115 20.6245 31.373 20.586 31.4375C20.2855 31.4863 20.0081 31.6255 19.7927 31.8355C19.5772 32.0456 19.4345 32.316 19.3845 32.609C19.3353 32.8943 19.3783 33.1875 19.5076 33.4479C19.6369 33.7083 19.846 33.9231 20.106 34.0625C20.1168 34.157 20.086 34.253 20.106 34.3445C19.9203 34.565 19.8071 34.835 19.7813 35.1192C19.7555 35.4034 19.8183 35.6886 19.9614 35.9375C20.2598 36.443 20.8537 36.725 21.4522 36.641C21.5291 36.7115 21.6075 36.764 21.6922 36.8285C21.7075 37.409 22.0875 37.9385 22.6537 38.141C23.2137 38.3405 23.8475 38.1485 24.2398 37.718C24.2968 37.721 24.326 37.766 24.3845 37.766C24.4475 37.766 24.5137 37.721 24.5768 37.718C24.7097 37.8641 24.8725 37.9814 25.0549 38.0623C25.2372 38.1432 25.4349 38.1858 25.6352 38.1875C25.8014 38.1875 25.9522 38.198 26.1152 38.141C26.3916 38.0408 26.6308 37.8622 26.8022 37.6283C26.9735 37.3944 27.0692 37.1159 27.0768 36.8285C27.1583 36.7655 27.2383 36.7115 27.3168 36.641C27.6088 36.6814 27.9066 36.6361 28.1721 36.5108C28.4376 36.3855 28.6588 36.1859 28.8075 35.9375C28.951 35.6885 29.014 35.403 28.9882 35.1184C28.9624 34.8339 28.849 34.5636 28.6629 34.343C28.6845 34.253 28.6491 34.154 28.6629 34.0625C28.9245 33.9248 29.135 33.7103 29.2645 33.4494C29.394 33.1885 29.436 32.8945 29.3845 32.609C29.3344 32.316 29.1917 32.0456 28.9763 31.8355C28.7608 31.6255 28.4835 31.4863 28.1829 31.4375C28.146 31.3715 28.1275 31.313 28.086 31.25C28.1924 30.9733 28.2079 30.6712 28.1305 30.3856C28.053 30.0999 27.8864 29.8448 27.6537 29.6555C27.4241 29.4622 27.1377 29.3446 26.8354 29.3195C26.5331 29.2945 26.2304 29.3632 25.9706 29.516C25.9091 29.492 25.8414 29.489 25.7783 29.4695C25.6819 29.1831 25.4952 28.9338 25.245 28.7568C24.9947 28.5799 24.6936 28.4844 24.3845 28.484ZM24.3845 31.109C25.7475 31.109 26.8368 32.171 26.8368 33.5C26.8368 34.832 25.7491 35.891 24.3845 35.891C24.0619 35.8928 23.7422 35.8322 23.4438 35.7126C23.1455 35.5931 22.8744 35.4171 22.6463 35.1947C22.4182 34.9723 22.2377 34.708 22.1151 34.4171C21.9925 34.1262 21.9303 33.8145 21.9322 33.5C21.9322 32.1695 23.0214 31.109 24.3845 31.109Z" fill="white"/>
</g>
<defs>
<clipPath id="clip0_11206_4267">
<rect width="40" height="39" fill="white" transform="translate(9 9.5)"/>
</clipPath>
</defs>
</svg>
