<svg width="76" height="76" viewBox="0 0 76 76" fill="none" xmlns="http://www.w3.org/2000/svg">
<path d="M6.33398 21.375C6.33398 19.4853 7.08465 17.6731 8.42085 16.3369C9.75705 15.0007 11.5693 14.25 13.459 14.25H62.5423C64.432 14.25 66.2443 15.0007 67.5805 16.3369C68.9167 17.6731 69.6673 19.4853 69.6673 21.375V39.0703C68.3087 37.3751 66.7083 35.8888 64.9173 34.6592V21.375C64.9173 20.7451 64.6671 20.141 64.2217 19.6956C63.7763 19.2502 63.1722 19 62.5423 19H13.459C12.8291 19 12.225 19.2502 11.7796 19.6956C11.3342 20.141 11.084 20.7451 11.084 21.375V54.625C11.084 55.936 12.148 57 13.459 57H31.3127C31.6438 58.6382 32.1645 60.2323 32.8643 61.75H13.459C11.5693 61.75 9.75705 60.9993 8.42085 59.6631C7.08465 58.3269 6.33398 56.5147 6.33398 54.625V21.375Z" fill="#1986C1"/>
<path d="M57.7923 30.875H18.209C17.5791 30.875 16.975 30.6248 16.5296 30.1794C16.0842 29.734 15.834 29.1299 15.834 28.5C15.834 27.8701 16.0842 27.266 16.5296 26.8206C16.975 26.3752 17.5791 26.125 18.209 26.125H57.7923C58.4222 26.125 59.0263 26.3752 59.4717 26.8206C59.9171 27.266 60.1673 27.8701 60.1673 28.5C60.1673 29.1299 59.9171 29.734 59.4717 30.1794C59.0263 30.6248 58.4222 30.875 57.7923 30.875ZM34.6598 40.375C35.841 38.656 37.2589 37.1124 38.8715 35.7897C38.5931 35.684 38.2983 35.6283 38.0007 35.625H18.209C17.5791 35.625 16.975 35.8752 16.5296 36.3206C16.0842 36.766 15.834 37.3701 15.834 38C15.834 38.6299 16.0842 39.234 16.5296 39.6794C16.975 40.1248 17.5791 40.375 18.209 40.375H34.6598Z" fill="#1986C1"/>
<path fill-rule="evenodd" clip-rule="evenodd" d="M65.4137 48.3931C65.4137 52.2438 63.7037 55.6986 61.0057 58.0388V67.2918C61.0053 67.7523 60.8711 68.2027 60.6193 68.5883C60.3676 68.9739 60.0092 69.278 59.5877 69.4636C59.1663 69.6491 58.7 69.7081 58.2456 69.6335C57.7912 69.5588 57.3683 69.3536 57.0284 69.0429L52.6489 65.0403L48.2725 69.0429C47.9326 69.3536 47.5097 69.5588 47.0553 69.6335C46.6009 69.7081 46.1346 69.6491 45.7132 69.4636C45.2917 69.278 44.9333 68.9739 44.6815 68.5883C44.4298 68.2027 44.2956 67.7523 44.2952 67.2918V58.0483C42.6781 56.6496 41.4382 54.8671 40.6894 52.8645C39.9405 50.8618 39.7067 48.7031 40.0094 46.5866C40.3121 44.47 41.1416 42.4634 42.4218 40.751C43.7019 39.0385 45.3917 37.675 47.336 36.7856C49.2804 35.8963 51.417 35.5095 53.5497 35.661C55.6824 35.8124 57.7429 36.4971 59.5421 37.6522C61.3413 38.8073 62.8215 40.3959 63.8468 42.272C64.8722 44.1482 65.4099 46.2519 65.4105 48.3899M52.6425 40.3719C51.5764 40.3508 50.5167 40.5424 49.5256 40.9358C48.5344 41.3291 47.6317 41.9162 46.8702 42.6627C46.1088 43.4092 45.5038 44.3001 45.0909 45.2832C44.6779 46.2664 44.4652 47.322 44.4652 48.3884C44.4652 49.4547 44.6779 50.5103 45.0909 51.4935C45.5038 52.4766 46.1088 53.3675 46.8702 54.114C47.6317 54.8605 48.5344 55.4476 49.5256 55.8409C50.5167 56.2343 51.5764 56.426 52.6425 56.4048C54.741 56.3631 56.7395 55.5002 58.2088 54.0013C59.6782 52.5025 60.5012 50.4873 60.5012 48.3884C60.5012 46.2895 59.6782 44.2742 58.2088 42.7754C56.7395 41.2766 54.741 40.4137 52.6425 40.3719Z" fill="#1986C1"/>
</svg>
