<svg width="58" height="58" viewBox="0 0 58 58" fill="none" xmlns="http://www.w3.org/2000/svg">
<rect width="58" height="58" rx="8" fill="#1986C1"/>
<path d="M39.3727 29.9225C38.2434 29.7569 37.1425 29.4358 36.1012 28.9685C39.313 26.1442 42.6573 23.4742 46.1227 20.9675L46.3477 20.81L46.4827 20.5625C47.1075 19.2459 47.2775 17.759 46.966 16.3354C46.6544 14.9117 45.879 13.6318 44.7614 12.6965C43.7266 11.7391 42.4113 11.14 41.0098 10.9877C39.6083 10.8354 38.195 11.1378 36.9787 11.8505L36.6952 12.1497C33.3277 16.8257 29.6377 21.2607 25.6522 25.4225C21.4062 29.2037 16.8798 32.6576 12.1117 35.7545L11.2252 36.3125V36.83C10.8904 38.2341 10.8577 39.6933 11.1292 41.111C11.4007 42.5288 11.9703 43.8726 12.8002 45.0537C13.4379 45.7179 14.2122 46.2358 15.0695 46.5718C15.9267 46.9078 16.8467 47.0539 17.7659 47C18.552 47.0411 19.3351 46.8754 20.0371 46.5192C20.7391 46.1631 21.3354 45.6291 21.7664 44.9705C22.3177 44.2775 26.4127 39.1025 30.7777 34.3775C31.3807 35.4215 31.8487 36.6342 32.1142 37.9212C32.3972 40.2685 32.0885 42.6492 31.2164 44.8467L35.0077 40.25L38.0002 42.5C37.9162 39.9487 37.4739 37.422 36.6862 34.994C36.1347 33.9893 35.4414 33.0693 34.6274 32.2625C35.5409 33.041 36.5872 33.7092 37.7144 34.229C39.8294 34.9895 42.1897 35.516 44.6354 35.741L42.5002 32.8925L47.0002 29C44.981 29.6484 42.8726 29.9756 40.7519 29.9697C40.2659 29.9697 39.7844 29.9532 39.3074 29.9202L39.3727 29.9225ZM38.3602 13.655C38.9498 13.3659 39.598 13.2165 40.2547 13.2185C41.3932 13.2185 42.4282 13.6595 43.1999 14.3795C43.9158 14.9544 44.4311 15.7415 44.6716 16.6277C44.9122 17.5138 44.8656 18.4534 44.5387 19.3115C43.4452 20.0022 39.2602 23.1747 35.2102 26.7522C35.095 25.6241 34.5582 24.5811 33.7072 23.8317C33.3261 23.5055 32.8811 23.2626 32.4006 23.1184C31.9201 22.9743 31.4149 22.9322 30.9172 22.9947C33.5394 19.9967 36.023 16.8802 38.3602 13.655ZM17.0752 37.5725C17.2483 37.4524 17.454 37.388 17.6647 37.388L17.7547 37.3925H17.9077C18.3104 37.5095 18.6592 37.712 18.9449 37.9797L16.9852 39.5975C16.7448 39.0968 16.6519 38.538 16.7174 37.9865C16.7796 37.8092 16.9066 37.6621 17.0729 37.5747L17.0752 37.5725ZM20.0002 43.625C19.7788 44.0168 19.445 44.3332 19.0419 44.5334C18.6388 44.7335 18.1849 44.8082 17.7389 44.7477C17.1268 44.8045 16.5098 44.725 15.9321 44.5149C15.3543 44.3048 14.8303 43.9694 14.3977 43.5327C13.5387 42.2544 13.0819 40.7483 13.0859 39.2082C13.0874 38.6427 13.1452 38.0952 13.2592 37.5657L14.8477 36.5375C14.6362 36.8525 14.4787 37.2215 14.3999 37.6197C14.2771 39.1835 14.7027 40.7412 15.6037 42.0252L16.4002 43.0152L20.2252 39.8652C20.6075 41.1161 20.5227 42.4633 19.9867 43.6565L20.0002 43.625ZM21.9352 38.1125C21.1673 36.7673 19.9354 35.7482 18.4702 35.246C18.3104 35.219 18.1777 35.21 18.0427 35.21C17.9077 35.21 17.7749 35.219 17.6444 35.2325C17.3827 35.2037 17.1186 35.2037 16.8569 35.2325C19.9734 33.1123 22.9691 30.8197 25.8299 28.3655C26.7254 28.5252 27.6569 28.928 28.3747 29.5647C29.0429 30.269 29.4547 31.2275 29.4547 32.285L29.4502 32.4965C27.0888 35.0286 24.8367 37.6605 22.7002 40.385C22.5848 39.5727 22.312 38.7908 21.8969 38.0832L21.9352 38.1125Z" fill="white"/>
</svg>
