<svg width="58" height="58" viewBox="0 0 58 58" fill="none" xmlns="http://www.w3.org/2000/svg">
<rect width="58" height="58" rx="8" fill="#1986C1"/>
<path d="M28.9873 24.7341C22.6362 24.7341 21.3659 30.6689 21.3659 33.7665C19.8177 34.3044 18.3607 35.086 17.0471 36.0831C15.9837 36.9105 15.2809 38.1336 15.0908 39.4878C14.9006 40.842 15.2384 42.2184 16.031 43.3195C16.8629 44.3905 18.0631 45.095 19.3856 45.2886C20.7082 45.4822 22.0529 45.1502 23.1442 44.3607C24.8664 43.163 26.9061 42.536 28.9873 42.5646C31.0685 42.536 33.1082 43.163 34.8304 44.3607C35.877 45.2178 37.2116 45.6166 38.5439 45.4704C39.8761 45.3241 41.098 44.6446 41.9436 43.5798C42.7838 42.5629 43.1953 41.2456 43.0876 39.9179C42.98 38.5901 42.3619 37.3605 41.3695 36.4996L41.1815 36.3434L40.9275 36.0831C39.5725 35.1554 38.1247 34.3788 36.6087 33.7665C36.6087 30.6949 35.3384 24.7341 28.9873 24.7341ZM15.218 20.309C14.3176 20.7705 13.6194 21.5619 13.2618 22.5262C12.9041 23.4905 12.9132 24.5572 13.2873 25.515C13.3654 26.551 13.8381 27.514 14.6035 28.1959C15.3688 28.8778 16.3652 29.2238 17.3774 29.1592C18.2778 28.6976 18.976 27.9063 19.3336 26.942C19.6913 25.9777 19.6822 24.9109 19.3082 23.9532C19.23 22.9171 18.7573 21.9541 17.992 21.2722C17.2266 20.5904 16.2302 20.2444 15.218 20.309ZM42.782 20.309C43.6824 20.7705 44.3806 21.5619 44.7382 22.5262C45.0959 23.4905 45.0868 24.5572 44.7127 25.515C44.6346 26.551 44.1619 27.514 43.3965 28.1959C42.6312 28.8778 41.6348 29.2238 40.6226 29.1592C39.7222 28.6976 39.024 27.9063 38.6664 26.942C38.3087 25.9777 38.3178 24.9109 38.6919 23.9532C38.77 22.9171 39.2427 21.9541 40.008 21.2722C40.7734 20.5904 41.7698 20.2444 42.782 20.309ZM22.8394 12.5C21.1119 12.7343 20.2989 14.9468 20.9086 17.3676C21.0444 18.4101 21.5241 19.3735 22.2682 20.098C23.0122 20.8225 23.9758 21.2644 24.9988 21.3502C26.7263 21.1159 27.5392 18.9034 26.9295 16.4826C26.7938 15.4401 26.314 14.4766 25.57 13.7522C24.8259 13.0277 23.8624 12.5858 22.8394 12.5ZM35.1606 12.5C36.8881 12.7343 37.7011 14.9468 37.0914 17.3676C36.9546 18.4141 36.4712 19.3808 35.722 20.1057C34.9728 20.8307 34.0033 21.27 32.9758 21.3502C31.2483 21.1419 30.4354 18.9034 31.0451 16.4826C31.1818 15.4361 31.6652 14.4694 32.4144 13.7444C33.1636 13.0195 34.1331 12.5801 35.1606 12.5Z" fill="white"/>
</svg>
