<svg width="20" height="20" viewBox="0 0 20 20" fill="none" xmlns="http://www.w3.org/2000/svg">
<path d="M11.4816 5.95498C11.4816 5.93399 11.5896 5.86503 11.9344 5.86503H13.0618C13.1498 5.86622 13.2372 5.84987 13.3188 5.81691C13.4005 5.78396 13.4747 5.73507 13.5373 5.6731C13.5998 5.61113 13.6493 5.53732 13.683 5.45598C13.7167 5.37464 13.7338 5.28741 13.7334 5.19937V3.2324C13.735 3.14473 13.7193 3.05762 13.6871 2.97605C13.6549 2.89449 13.6069 2.82009 13.5459 2.75712C13.4849 2.69415 13.4121 2.64386 13.3315 2.60913C13.251 2.5744 13.1645 2.55592 13.0768 2.55475H11.3977C10.9317 2.53878 10.4673 2.61773 10.0328 2.7868C9.59824 2.95587 9.20263 3.21153 8.86997 3.53824C8.54779 3.88579 8.29743 4.29357 8.13329 4.73815C7.96914 5.18273 7.89444 5.65536 7.91347 6.12889V7.91296H6.60915C6.52134 7.91257 6.43431 7.92947 6.35304 7.96271C6.27176 7.99595 6.19783 8.04487 6.13546 8.10668C6.07309 8.16849 6.02351 8.24198 5.98954 8.32296C5.95558 8.40393 5.93789 8.4908 5.9375 8.57861V10.6985C5.9375 10.8743 6.00731 11.0428 6.13159 11.1671C6.25586 11.2913 6.42441 11.3612 6.60015 11.3612H7.88349V15.9638C7.88108 16.1398 7.94851 16.3096 8.07101 16.4361C8.19352 16.5625 8.36112 16.6353 8.53715 16.6384H10.741C10.8283 16.6384 10.9147 16.6212 10.9953 16.5877C11.0759 16.5542 11.1491 16.5051 11.2106 16.4433C11.2722 16.3814 11.3209 16.308 11.3541 16.2273C11.3872 16.1465 11.404 16.06 11.4037 15.9728V11.3762H12.9718C13.1481 11.3754 13.317 11.305 13.4417 11.1803C13.5663 11.0557 13.6367 10.8868 13.6375 10.7105V8.58761C13.6375 8.50033 13.6202 8.41392 13.5868 8.33333C13.5533 8.25273 13.5042 8.17955 13.4423 8.11798C13.3805 8.05641 13.3071 8.00766 13.2263 7.97453C13.1456 7.94141 13.0591 7.92456 12.9718 7.92495H11.4126V6.36277C11.3959 6.22304 11.4199 6.08145 11.4816 5.95498Z" fill="#1986C1" stroke="#1986C1" stroke-width="0.899414" stroke-linecap="round"/>
</svg>
