<svg width="13" height="14" viewBox="0 0 13 14" fill="none" xmlns="http://www.w3.org/2000/svg">
<path d="M12.6669 1.27311L12.5869 0.433105L11.7869 0.699772C10.4158 1.17614 8.95171 1.32232 7.51354 1.12644C6.0023 0.891913 4.45548 1.10032 3.0602 1.72644C2.32052 2.0414 1.67137 2.53638 1.17185 3.16631C0.672334 3.79624 0.338314 4.54111 0.200203 5.33311C0.0211223 6.35623 0.110711 7.40832 0.460203 8.38644C0.685239 7.8785 0.948205 7.38822 1.24687 6.91977C1.92434 5.923 2.86305 5.13189 3.9602 4.63311C5.01716 4.15052 6.17246 3.9222 7.33354 3.96644C6.22832 4.13582 5.17038 4.53311 4.22687 5.13311C3.77194 5.41912 3.35526 5.76188 2.98687 6.15311C2.63472 6.54432 2.32416 6.97105 2.0602 7.42644C1.56465 8.37848 1.21197 9.39831 1.01354 10.4531C0.79967 11.5113 0.683626 12.587 0.66687 13.6664H2.0002C2.06356 12.6984 2.19499 11.736 2.39354 10.7864C3.31849 11.2859 4.35577 11.5406 5.40687 11.5264C6.38719 11.5258 7.35742 11.3285 8.2602 10.9464C13.3335 8.77977 12.6669 1.57311 12.6669 1.27311Z" fill="white"/>
</svg>
