<svg width="20" height="20" viewBox="0 0 20 20" fill="none" xmlns="http://www.w3.org/2000/svg">
<path d="M10.0052 0.0751953C12.5914 0.0751953 12.9099 0.0939355 13.9219 0.131416C14.9151 0.168896 15.6085 0.337559 16.227 0.581182C16.8641 0.824805 17.3889 1.14339 17.9136 1.66812C18.4383 2.19284 18.7569 2.71757 19.0005 3.35474C19.2441 3.97316 19.4128 4.66655 19.4503 5.65979C19.4878 6.67176 19.5065 6.99034 19.5065 9.57649C19.5065 12.1626 19.4878 12.4812 19.4503 13.4932C19.4128 14.4864 19.2441 15.1798 19.0005 15.7983C18.7569 16.4354 18.4383 16.9601 17.9136 17.4849C17.3889 18.0096 16.8641 18.3282 16.227 18.5718C15.6085 18.8154 14.9151 18.9841 13.9219 19.0216C12.9099 19.0591 12.5914 19.0778 10.0052 19.0778C7.41905 19.0778 7.10047 19.0591 6.0885 19.0216C5.09526 18.9841 4.40188 18.8154 3.78345 18.5718C3.14628 18.3282 2.62155 18.0096 2.09683 17.4849C1.5721 16.9601 1.25352 16.4354 1.00989 15.7983C0.76627 15.1798 0.597607 14.4864 0.560127 13.4932C0.522646 12.4812 0.503906 12.1626 0.503906 9.57649C0.503906 6.99034 0.522646 6.67176 0.560127 5.65979C0.597607 4.66655 0.76627 3.97316 1.00989 3.35474C1.25352 2.71757 1.5721 2.19284 2.09683 1.66812C2.62155 1.14339 3.14628 0.824805 3.78345 0.581182C4.40188 0.337559 5.09526 0.168896 6.0885 0.131416C7.10047 0.0939355 7.41905 0.0751953 10.0052 0.0751953ZM10.0052 1.31205C7.30661 1.31205 6.98803 1.33079 5.93857 1.36827C4.96408 1.40575 4.42062 1.59315 4.06455 1.72434C3.14628 2.09914 2.52785 2.71757 2.15305 3.63584C2.02187 3.9919 1.83446 4.53537 1.79698 5.50986C1.7595 6.55932 1.74076 6.8779 1.74076 9.57649C1.74076 12.2751 1.7595 12.5937 1.79698 13.6431C1.83446 14.6176 2.02187 15.1611 2.15305 15.5171C2.52785 16.4354 3.14628 17.0538 4.06455 17.4287C4.42062 17.5598 4.96408 17.7472 5.93857 17.7847C6.98803 17.8222 7.30661 17.8409 10.0052 17.8409C12.7038 17.8409 13.0224 17.8222 14.0718 17.7847C15.0463 17.7472 15.5898 17.5598 15.9459 17.4287C16.8641 17.0538 17.4826 16.4354 17.8574 15.5171C17.9885 15.1611 18.1759 14.6176 18.2134 13.6431C18.2509 12.5937 18.2696 12.2751 18.2696 9.57649C18.2696 6.8779 18.2509 6.55932 18.2134 5.50986C18.1759 4.53537 17.9885 3.9919 17.8574 3.63584C17.4826 2.71757 16.8641 2.09914 15.9459 1.72434C15.5898 1.59315 15.0463 1.40575 14.0718 1.36827C13.0224 1.33079 12.7038 1.31205 10.0052 1.31205ZM10.0052 13.3808C12.1041 13.3808 13.8095 11.6754 13.8095 9.57649C13.8095 7.47759 12.1041 5.77223 10.0052 5.77223C7.9063 5.77223 6.20094 7.47759 6.20094 9.57649C6.20094 11.6754 7.9063 13.3808 10.0052 13.3808ZM10.0052 4.70403C12.7038 4.70403 14.8777 6.8779 14.8777 9.57649C14.8777 12.2751 12.7038 14.449 10.0052 14.449C7.30661 14.449 5.13274 12.2751 5.13274 9.57649C5.13274 6.8779 7.30661 4.70403 10.0052 4.70403ZM16.227 4.51663C16.227 5.1538 15.7022 5.64105 15.0651 5.64105C14.4279 5.64105 13.9407 5.1538 13.9407 4.51663C13.9407 3.87946 14.4279 3.35474 15.0651 3.35474C15.7022 3.35474 16.227 3.87946 16.227 4.51663Z" fill="#1986C1" stroke="#1986C1" stroke-width="0.0187378"/>
</svg>
