<svg width="20" height="20" viewBox="0 0 20 20" fill="none" xmlns="http://www.w3.org/2000/svg">
<path d="M10.9162 7.22607H8.31055V16.6502H11.0091V12.3324C11.0091 11.187 11.225 10.0866 12.6373 10.0866C14.0496 10.0866 14.0526 11.3879 14.0526 12.4044V16.6502H16.7511V11.8317C16.7511 9.50489 16.2564 7.35801 13.5098 7.35801C12.4964 7.31903 11.5159 7.50493 10.9702 8.3325C10.967 8.33993 10.9613 8.34595 10.954 8.34943C10.9467 8.35292 10.9385 8.35362 10.9307 8.3514C10.923 8.34919 10.9163 8.34421 10.912 8.33741C10.9076 8.33062 10.9059 8.32247 10.9072 8.31451L10.9162 7.22607Z" stroke="#1986C1" stroke-width="0.899414" stroke-linecap="round"/>
<path d="M3.89258 7.22607H6.61516V16.6502H3.89258V7.22607Z" stroke="#1986C1" stroke-width="0.899414" stroke-linecap="round"/>
<path d="M5.24807 2.53956C4.93558 2.53838 4.62976 2.62988 4.36928 2.80251C4.1088 2.97513 3.90536 3.22112 3.78468 3.50936C3.664 3.79761 3.63151 4.11517 3.69131 4.42188C3.75111 4.72859 3.90052 5.01068 4.12064 5.23248C4.34076 5.45428 4.62171 5.60583 4.92796 5.66795C5.23421 5.73008 5.55201 5.7 5.84116 5.58151C6.13031 5.46302 6.37784 5.26145 6.55243 5.00229C6.72703 4.74313 6.82085 4.43801 6.82204 4.12553C6.82362 3.91782 6.78408 3.71186 6.70569 3.51951C6.6273 3.32716 6.51161 3.15223 6.3653 3.0048C6.21898 2.85737 6.04493 2.74036 5.85318 2.66051C5.66143 2.58066 5.45578 2.53956 5.24807 2.53956Z" stroke="#1986C1" stroke-width="0.899414" stroke-linecap="round"/>
</svg>
