<svg width="21" height="20" viewBox="0 0 21 20" fill="none" xmlns="http://www.w3.org/2000/svg">
<path d="M18.4406 3.55494C17.9207 3.18073 16.4718 2.68359 10.4009 2.68359C3.89517 2.68359 2.92997 3.2545 2.62021 3.4413C0.971673 4.43166 0.815155 8.81628 0.800781 9.70532C0.820571 10.8795 1.01037 14.7862 2.61903 15.7526C2.92819 15.9388 3.88797 16.5064 10.4009 16.5064C16.4757 16.5064 17.9228 16.0116 18.4406 15.6389C19.8457 14.6282 20.0073 11.1473 20.0112 9.69006C20.0076 8.51827 19.8846 4.59512 18.4406 3.55496L18.4406 3.55494ZM17.7402 14.6656C17.5312 14.8162 16.3312 15.307 10.4008 15.307C4.66753 15.307 3.46456 14.862 3.23727 14.725C2.65858 14.3778 2.04779 12.5346 1.99984 9.70202C2.04721 6.87569 2.66639 4.81247 3.23851 4.46944C3.46639 4.33182 4.67384 3.88325 10.4008 3.88325C16.3264 3.88325 17.5296 4.37741 17.7401 4.52853C18.2538 4.89854 18.8037 6.84632 18.8118 9.69394C18.8037 12.5862 18.2502 14.2986 17.7402 14.6656ZM14.3117 9.1233L8.91577 5.81211C8.82481 5.75725 8.72091 5.72755 8.6147 5.72602C8.50848 5.72449 8.40377 5.7512 8.31127 5.80341C8.21868 5.85563 8.14163 5.93151 8.08799 6.02329C8.03436 6.11506 8.00607 6.21944 8.00603 6.32574V12.9493C8.00611 13.1083 8.06931 13.2608 8.18176 13.3732C8.2942 13.4857 8.44669 13.5489 8.60571 13.549C8.71486 13.549 8.82194 13.5192 8.91543 13.4629L14.3114 10.1505C14.4913 10.0417 14.6014 9.84714 14.6014 9.63693C14.6014 9.42672 14.4916 9.23154 14.3117 9.1233H14.3117ZM9.20572 11.8869V7.38747L12.8413 9.6369L9.20572 11.8869Z" fill="#1986C1"/>
</svg>
