<svg xmlns="http://www.w3.org/2000/svg" viewBox="0 0 320 88" fill="none">
  <rect width="320" height="88" rx="6" fill="#F4F6F8"/>
  <rect x="12" y="16" width="70" height="56" rx="4" fill="#E8EEF4" stroke="#D0D7DE"/>
  <rect x="28" y="26" width="38" height="10" rx="2" fill="#D0D7DE"/>
  <rect x="20" y="44" width="54" height="6" rx="2" fill="#C5CDD6"/>
  <rect x="87" y="16" width="70" height="56" rx="4" fill="#E8EEF4" stroke="#D0D7DE"/>
  <rect x="103" y="26" width="38" height="10" rx="2" fill="#D0D7DE"/>
  <rect x="95" y="44" width="54" height="6" rx="2" fill="#C5CDD6"/>
  <rect x="162" y="16" width="70" height="56" rx="4" fill="#E8EEF4" stroke="#D0D7DE"/>
  <rect x="178" y="26" width="38" height="10" rx="2" fill="#D0D7DE"/>
  <rect x="170" y="44" width="54" height="6" rx="2" fill="#C5CDD6"/>
  <rect x="237" y="16" width="70" height="56" rx="4" fill="#E8EEF4" stroke="#D0D7DE"/>
  <rect x="253" y="26" width="38" height="10" rx="2" fill="#D0D7DE"/>
  <rect x="245" y="44" width="54" height="6" rx="2" fill="#C5CDD6"/>
</svg>
